<svg width="582" height="254" viewBox="0 0 582 254" fill="none" xmlns="http://www.w3.org/2000/svg">
<g clip-path="url(#clip0_589_8643)">
<path fill-rule="evenodd" clip-rule="evenodd" d="M32.275 32.5445C32.275 32.5445 29.0144 19.5942 37.6746 16.5301C46.3349 13.4599 74.1848 22.468 75.3555 18.2188C76.5261 13.9696 73.2839 3.5001 83.6602 0.786018C94.0366 -1.92806 98.9888 8.2958 108.072 7.11683C117.155 5.93786 121.598 -0.632428 127.838 6.50278C134.077 13.6319 122.665 27.3005 122.665 27.3005C122.665 27.3005 138.619 14.5284 144.38 25.3724C150.135 36.2165 130.412 49.5719 130.412 49.5719C130.412 49.5719 143.038 46.4587 144.901 61.0055C146.764 75.5522 145.232 82.0427 133.961 76.2891C122.689 70.5355 121.623 65.2915 110.554 72.3469C99.4913 79.4023 93.0988 85.598 84.4386 76.6514C75.7845 67.7047 67.4614 48.0614 54.4619 52.022C41.4685 55.9826 19.2019 68.1837 11.7001 54.3922C4.20437 40.5946 4.70695 37.3831 11.7001 30.2049C18.6932 23.0268 32.2628 32.5506 32.2628 32.5506L32.275 32.5445Z" fill="#F3B12E"/>
<path d="M330.559 77.7566L333.538 81.9321C334.096 82.712 333.906 83.805 333.121 84.3515L312.908 98.4193C312.203 98.9105 311.247 98.8061 310.665 98.1798L308.985 96.3745C308.317 95.6622 308.379 94.5323 309.114 93.8937L328.022 77.4496C328.788 76.7803 329.959 76.9215 330.553 77.7505L330.559 77.7566Z" fill="#DA6A9E"/>
<path d="M264.379 55.6019L268.92 79.6418C269.098 80.5751 268.553 81.4962 267.652 81.7909L265.274 82.5708C264.269 82.9023 263.19 82.3436 262.877 81.3304L255.67 57.8984C255.357 56.8791 255.945 55.7984 256.975 55.5159L262.019 54.1282C263.086 53.8334 264.17 54.515 264.379 55.6019Z" fill="#DA6A9E"/>
<path d="M234.635 111.658L233.238 114.691C232.95 115.312 232.232 115.606 231.595 115.355L209.016 106.469C208.311 106.193 207.999 105.376 208.33 104.695L211.008 99.2421C211.327 98.5851 212.13 98.3272 212.773 98.671L234.071 109.976C234.678 110.295 234.929 111.038 234.641 111.658H234.635Z" fill="#DA6A9E"/>
<path d="M276.986 163.619C295.536 163.619 310.573 148.553 310.573 129.969C310.573 111.385 295.536 96.3192 276.986 96.3192C258.437 96.3192 243.399 111.385 243.399 129.969C243.399 148.553 258.437 163.619 276.986 163.619Z" fill="#F3B12E"/>
<path fill-rule="evenodd" clip-rule="evenodd" d="M78.3771 37.6348C78.3771 37.6348 78.8491 16.6713 90.0835 12.9195C101.318 9.16766 116.885 29.7628 116.885 29.7628C116.885 29.7628 121.697 6.93868 140.126 7.88431C158.556 8.82994 159.96 23.0328 158.305 31.6724C156.656 40.3059 142.842 51.4693 142.842 51.4693C142.842 51.4693 157.612 48.0245 157.134 64.2537C156.656 80.4891 145.912 90.5226 134.708 84.5848C123.505 78.6469 119.882 72.1012 119.882 72.1012C119.882 72.1012 123.125 82.6321 106.147 86.6664C89.1702 90.7006 97.5976 70.038 97.5976 70.038C97.5976 70.038 85.8729 99.9359 74.9204 88.3734C63.9741 76.8109 74.3504 70.5722 74.3504 70.5722C74.3504 70.5722 37.1415 83.2032 40.304 67.1152C43.4666 51.0272 60.9157 50.9166 60.9157 50.9166C60.9157 50.9166 38.4347 43.02 47.5914 32.2067C56.748 21.3933 78.3771 37.641 78.3771 37.641V37.6348Z" fill="#FCD882"/>
<path fill-rule="evenodd" clip-rule="evenodd" d="M19.4227 245.182L15.9047 45.1446C15.8802 43.7323 16.9466 42.535 18.3563 42.406L69.9867 37.6533C71.5005 37.5121 72.8305 38.6542 72.9286 40.177L77.2495 110.227C77.3414 111.732 78.6469 112.874 80.1485 112.757L113.049 110.203C114.556 110.086 115.868 111.228 115.954 112.745C116.236 118.081 116.941 129.938 117.909 137.319C118.062 138.498 118.969 139.425 120.14 139.616L137.283 142.471C138.766 142.717 140.169 141.703 140.396 140.211L142.756 124.651C142.946 123.38 144 122.422 145.281 122.355C151.159 122.06 167.321 121.249 174.675 120.912C176.22 120.844 177.501 122.078 177.489 123.626C177.44 129.944 177.452 145.314 178.622 154.082C178.819 155.544 180.161 156.569 181.626 156.397C305.768 141.752 274.069 144.976 336.786 140.113C338.251 140.002 339.538 141.083 339.679 142.545L341.708 163.41C341.837 164.761 342.952 165.811 344.313 165.848L374.743 166.787C376.312 166.836 377.593 165.534 377.52 163.956L373.29 73.6671C373.223 72.2056 374.332 70.953 375.791 70.8425L422.874 67.3977C424.271 67.2933 425.515 68.2819 425.736 69.6696L434.641 125.892C434.856 127.249 436.057 128.231 437.424 128.17L472.126 126.616C473.597 126.549 474.743 125.321 474.7 123.847L473.536 77.947C473.499 76.4487 474.682 75.2083 476.177 75.1776L527.734 74.1338C529.187 74.103 530.4 75.2267 530.48 76.682L539.63 235.37C539.716 236.807 538.656 238.059 537.228 238.213C455.976 246.889 372.898 257.175 295.312 248.762C208.685 239.392 124.185 237.28 19.4289 245.182H19.4227Z" fill="#82D0C8"/>
<path fill-rule="evenodd" clip-rule="evenodd" d="M530.7 119.763C529.536 114.01 527.348 96.1534 537.534 94.2069C549.725 91.8735 548.793 103.025 548.793 103.025C548.793 103.025 550.803 91.5788 560.242 90.0375C569.681 88.4963 566.769 102.171 566.769 102.171C566.769 102.171 570.232 91.9595 580.308 91.4498V235.88C504.064 243.512 425.644 254.725 350.92 252.029L349.59 221.756C349.59 221.756 347.414 210.962 359.451 205.104C367.78 201.051 372.377 203.906 373.536 208.254C373.536 208.254 373.505 208.131 373.437 207.922C372.432 204.686 365.513 178.614 378.334 172.436C392.02 165.841 405.841 184.779 405.841 184.779C405.841 184.779 404.383 162.231 414.728 158.399C425.074 154.568 433.783 178.245 433.783 178.245C433.783 178.245 431.044 160.579 447.31 156.072C463.582 151.559 461.725 169.581 461.725 169.581C461.725 169.581 464.275 152.179 474.351 151.786C481.693 151.479 485.23 159.64 486.388 166.922C486.388 166.922 486.308 166.413 486.155 165.59C485.242 160.493 483.029 142.231 490.727 138.473C497.157 135.33 500.503 140.641 501.882 143.883C502.336 145.265 502.654 146.118 502.654 146.118C502.452 145.357 502.195 144.608 501.882 143.883C500.056 138.326 496.219 124.185 503.427 122.281C512.424 119.905 517.75 135.538 517.75 135.538C517.75 135.538 512.522 114.974 520.6 110.332C526.962 106.666 529.879 115.729 530.694 119.763C530.921 120.887 531.05 121.563 531.05 121.563C531.05 121.563 530.915 120.856 530.694 119.77L530.7 119.763Z" fill="#81A046"/>
<path fill-rule="evenodd" clip-rule="evenodd" d="M1.50781 150.042C1.50781 150.042 9.44482 132.769 25.6804 131.467C41.9099 130.159 39.4338 157.791 39.4338 157.791C39.4338 157.791 50.6621 132.787 69.6557 131.842C88.6494 130.896 81.7727 154.69 81.7727 154.69C81.7727 154.69 88.821 137.472 102.188 141.059C115.556 144.645 100.999 175.66 100.999 175.66C100.999 175.66 115.574 149.649 128.371 152.695C141.175 155.74 137.105 186.584 137.105 186.584C137.105 186.584 141.095 171.65 150.362 172.915C159.629 174.18 161.351 197.299 161.351 197.299C161.351 197.299 161.4 180.953 172.733 182.372C184.065 183.79 178.543 205.576 178.543 205.576C178.543 205.576 183.55 184.944 194.368 194.278C205.185 203.611 199.228 241.209 199.228 241.209C199.228 241.209 138.895 239.005 87.9752 241.209C59.4265 242.591 30.9759 245.606 2.77038 250.254L1.51394 150.048L1.50781 150.042Z" fill="#81A046"/>
<path d="M312.461 250.881C210.027 239.785 117.223 239.582 2.14515 250.217C1.30548 250.291 0.557749 249.671 0.484202 248.83C0.410654 247.988 1.02968 247.239 1.86935 247.166C117.155 236.518 210.144 236.721 312.785 247.835C398.609 257.132 492.529 243.389 580.327 234.59C581.154 234.498 581.896 235.093 581.988 235.922C581.988 235.935 581.988 235.947 581.988 235.959C582.074 236.794 581.461 237.544 580.627 237.629C493.112 246.416 398.689 260.232 312.454 250.887L312.461 250.881Z" fill="#033A43"/>
<path d="M177.072 205.19C178.322 200.185 179.444 190.581 176.484 186.246C175.601 184.901 174.155 184.03 172.555 183.876C170.575 183.532 168.54 184.091 167.02 185.405C162.963 188.979 162.889 197.225 162.889 197.311C162.889 198.134 162.24 198.81 161.419 198.84C160.603 198.853 159.923 198.239 159.843 197.428C159.384 191.343 156.761 175.347 150.166 174.444C142.315 173.4 138.619 186.86 138.588 186.995C138.386 187.812 137.565 188.316 136.743 188.113C135.971 187.923 135.475 187.167 135.603 186.387C136.682 178.196 137.43 156.44 128.028 154.199C118.43 151.933 106.233 169.464 102.335 176.422C101.919 177.152 100.987 177.41 100.258 176.993C99.5712 176.6 99.2954 175.746 99.6325 175.021C103.721 166.314 111.155 145.05 101.808 142.545C89.8936 139.321 83.452 154.635 83.1824 155.286C82.8637 156.066 81.975 156.44 81.1966 156.127C80.4734 155.833 80.0872 155.034 80.3079 154.285C80.3385 154.168 83.6114 142.532 78.9963 136.699C76.6489 134.12 73.1799 132.873 69.7293 133.383C51.9002 134.273 40.9293 158.19 40.819 158.418C40.4758 159.185 39.5748 159.529 38.8026 159.185C38.2081 158.921 37.8526 158.307 37.9077 157.656C37.9077 157.503 39.2439 141.783 33.0046 135.477C31.1168 133.573 28.4508 132.658 25.7969 132.996C10.6277 134.218 2.9604 150.527 2.88686 150.705C2.51299 151.461 1.59978 151.768 0.845914 151.393C0.122696 151.037 -0.19601 150.171 0.122696 149.428C0.459789 148.691 8.62969 131.332 25.5579 129.969C36.7432 129.023 40.5922 140.267 41.0519 151.583C45.6854 143.914 55.504 131.044 69.5822 130.344C80.2834 129.791 84.9782 136.656 84.4817 147.254C88.1407 142.483 94.2329 137.374 102.605 139.622C111.897 142.109 109.776 154.991 107 164.196C112.669 157.073 120.857 149.354 128.745 151.252C138.159 153.493 139.458 168.255 139.25 178.049C141.653 174.254 145.342 170.723 150.589 171.429C156.944 172.301 160.082 181.131 161.59 188.266C163 183.311 167.848 180.155 172.941 180.886C179.646 181.721 181.491 188.402 181.423 195.162C185.254 189.654 190.237 188.702 195.385 193.148C196.01 193.713 196.059 194.677 195.496 195.303C194.95 195.911 194.025 195.979 193.399 195.457C192.002 193.86 189.851 193.148 187.779 193.59C183.642 194.917 180.853 202.752 180.081 205.828C179.91 206.657 179.107 207.185 178.279 207.019C177.452 206.847 176.925 206.043 177.09 205.214L177.072 205.19Z" fill="#033A43"/>
<path d="M349.596 223.273C348.873 223.273 348.248 222.763 348.107 222.051C347.095 214.222 351.49 206.694 358.796 203.734C362.32 201.53 366.647 201.051 370.563 202.432C368.694 193.117 367.002 176.213 377.685 171.067C388.656 165.774 399.339 175.132 404.266 180.511C404.413 173.449 405.829 160.082 414.214 156.981C422.046 154.052 428.666 163.895 432.423 171.38C433.232 163.281 439.036 156.569 446.918 154.611C454.125 152.603 460.046 154.389 462.369 161.463C464.355 156.318 467.983 150.521 474.302 150.263C478.071 150.122 481.632 152.007 483.643 155.206C483.502 147.979 484.642 139.751 490.041 137.104C492.646 135.6 495.858 135.612 498.45 137.135C497.163 130.804 496.758 122.484 503.022 120.813C508.036 119.469 511.971 122.705 514.698 126.426C514.146 119.905 514.698 111.977 519.84 109.024C522.549 107.194 526.208 107.783 528.206 110.375C528.065 102.668 529.732 94.1577 537.246 92.7209C542.248 91.7691 546.949 92.684 549.173 97.2464C551.11 92.727 555.167 89.4664 559.991 88.5515C564.667 87.8024 568.044 90.1542 568.633 95.9569C571.44 92.3647 575.663 90.1726 580.21 89.9454C581.019 89.8717 581.737 90.4735 581.804 91.284C581.804 91.3208 581.804 91.3516 581.804 91.3884C581.847 92.2296 581.203 92.9481 580.357 92.9911C571.464 93.4454 568.314 102.306 568.167 102.687C567.891 103.485 567.027 103.909 566.23 103.632C565.501 103.381 565.078 102.625 565.237 101.876C565.636 99.9789 566.224 94.5876 564.159 92.4138C563.141 91.5112 561.744 91.1919 560.438 91.5542C552.17 92.9051 550.264 103.196 550.24 103.301C550.105 104.105 549.357 104.658 548.548 104.547C547.745 104.443 547.157 103.731 547.218 102.92C547.365 100.703 546.605 98.5236 545.122 96.878C542.989 95.3613 540.268 94.9314 537.767 95.7174C529.812 97.2464 530.725 111.308 532.123 119.309C532.355 120.341 532.478 121.09 532.515 121.354C532.637 122.189 532.067 122.963 531.234 123.092C530.443 123.208 529.702 122.699 529.524 121.919C529.493 121.79 529.34 121.09 529.138 119.984C528.445 117.037 526.907 112.45 524.51 111.296C523.45 110.86 522.237 111.001 521.311 111.676C515.519 115.005 517.811 129.772 519.178 135.182C519.374 136.005 518.872 136.828 518.05 137.024C517.297 137.208 516.524 136.785 516.261 136.054C516.212 135.913 511.284 121.765 503.77 123.779C498.272 125.228 501.459 137.823 503.231 143.281C503.58 144.086 503.868 144.921 504.095 145.768C504.297 146.585 503.801 147.414 502.986 147.617C502.238 147.801 501.472 147.402 501.196 146.683C501.073 146.358 500.755 145.51 500.356 144.307C498.456 139.966 495.588 137.786 491.353 139.861C485.371 142.784 486.407 157.681 487.565 164.982C487.767 165.964 487.871 166.621 487.871 166.75C487.976 167.585 487.381 168.347 486.548 168.451C485.751 168.549 485.015 168.015 484.862 167.229C484.807 166.947 484.715 166.431 484.599 165.725C483.397 159.922 480.278 152.989 474.388 153.327C465.679 153.677 463.233 169.661 463.209 169.814C463.074 170.625 462.332 171.19 461.517 171.11C460.696 171.006 460.101 170.269 460.187 169.44C460.187 169.366 460.898 161.807 456.963 158.473C454.217 156.637 450.742 156.293 447.69 157.558C432.895 161.66 435.156 177.367 435.26 178.03C435.389 178.865 434.819 179.645 433.986 179.774C433.269 179.885 432.576 179.473 432.325 178.798C429.695 171.724 422.335 157.22 415.231 159.873C407.613 162.691 406.945 178.767 407.331 184.723C407.38 185.565 406.736 186.283 405.897 186.332C405.388 186.363 404.898 186.13 404.591 185.718C404.462 185.54 391.353 167.905 378.978 173.842C366.261 179.971 375.35 209.463 375.019 207.947C375.215 208.769 374.706 209.592 373.885 209.783C373.101 209.967 372.304 209.506 372.077 208.733C371.691 207.204 370.649 205.92 369.239 205.22C366.156 204.305 362.828 204.772 360.113 206.51C349.339 211.754 351 221.099 351.079 221.492C351.226 222.321 350.675 223.113 349.847 223.261C349.761 223.279 349.67 223.285 349.578 223.285L349.596 223.273Z" fill="#033A43"/>
<path d="M225.73 65.6968C225.325 62.5099 223.266 59.7897 221.01 57.6344C218.724 55.4852 216.205 53.594 213.502 51.9974C208.139 48.8535 202.299 46.6 196.213 45.3351C190.047 44.0333 183.758 43.4131 177.458 43.4929C176.692 43.4929 175.92 43.5113 175.153 43.5298C174.547 43.5482 174.541 44.4938 175.153 44.4754C181 44.2789 186.854 44.6535 192.633 45.5991C198.352 46.514 203.911 48.2395 209.151 50.7141C211.731 51.9606 214.201 53.4343 216.518 55.1229C218.975 56.7931 221.133 58.8563 222.91 61.2388C224.602 63.431 225.196 66.2801 224.541 68.9697C224.216 70.1486 223.572 71.2109 222.684 72.046C221.721 72.8996 220.471 73.3601 219.184 73.3233C216.401 73.3048 213.055 71.7697 212.228 68.9021C211.841 67.6925 212.013 66.3723 212.693 65.2977C213.417 64.3091 214.636 63.8055 215.85 63.9959C216.432 64.0819 216.959 64.3643 217.357 64.8003C217.774 65.2547 218.442 64.5792 218.026 64.131C217.069 63.1669 215.672 62.7862 214.36 63.1301C213.03 63.4371 211.933 64.3827 211.437 65.66C210.953 66.9556 210.971 68.3925 211.498 69.6697C212.136 71.1434 213.263 72.3469 214.691 73.0776C217.278 74.4838 220.716 74.8584 223.119 72.9118C225.147 71.0881 226.128 68.374 225.736 65.6784L225.73 65.6968Z" fill="#033A43"/>
<path d="M219.129 75.4969C217.278 75.4969 215.476 74.9259 214.097 74.1767C212.448 73.3293 211.112 71.9048 210.364 70.1731C209.709 68.5828 209.684 66.8327 210.279 65.2424C210.928 63.5722 212.344 62.3441 214.072 61.9511C215.77 61.5028 217.621 62.0125 218.884 63.2835C219.331 63.7686 219.478 64.3888 219.294 64.9722C219.11 65.5678 218.62 66.0222 218.02 66.1573C217.443 66.2862 216.855 66.102 216.444 65.6538C216.236 65.4266 215.954 65.2792 215.654 65.2301C214.894 65.1073 214.152 65.4081 213.692 66.0099C213.221 66.7713 213.11 67.6924 213.386 68.5459C214.054 70.8547 216.867 72.1012 219.184 72.1135C220.195 72.1381 221.133 71.7942 221.869 71.1433C222.567 70.4863 223.094 69.6205 223.358 68.6564C223.922 66.3476 223.407 63.9099 221.942 62.0002C220.232 59.7098 218.179 57.7449 215.831 56.1483C213.545 54.4843 211.131 53.0413 208.618 51.8255C203.494 49.4 198.045 47.7114 192.437 46.8148C186.75 45.8815 180.952 45.5069 175.196 45.7034C174.234 45.7218 173.493 45.0034 173.474 44.0578C173.45 43.0999 174.173 42.3262 175.123 42.2955C175.901 42.2709 176.68 42.2586 177.452 42.2586C183.832 42.1849 190.225 42.8113 196.47 44.1315C202.691 45.4271 208.636 47.7175 214.121 50.9351C216.898 52.5746 219.497 54.5273 221.85 56.7317C224.853 59.5993 226.563 62.559 226.943 65.5248C227.391 68.6319 226.263 71.739 223.928 73.839C223.909 73.8513 223.897 73.8636 223.879 73.882C222.438 75.0487 220.771 75.4908 219.129 75.4908V75.4969Z" fill="#033A43"/>
<path d="M207.98 4.19396C206.381 2.21674 203.941 1.1176 201.404 1.23426C198.946 1.39392 196.262 3.02728 195.875 5.64925C195.636 7.73701 197.022 9.65897 199.075 10.0888C199.565 10.1686 200.062 10.1195 200.527 9.94757C201.091 9.73266 200.858 8.81773 200.288 9.03264C198.591 9.66511 196.862 7.97035 196.789 6.30628C196.684 3.91764 199.302 2.32113 201.41 2.19218C203.733 2.08165 205.964 3.11324 207.386 4.95538C208.752 6.92033 209.126 9.41335 208.391 11.6976C207.502 14.3871 205.823 16.7512 203.58 18.4767C201.539 20.1714 199.32 21.639 196.96 22.8548C192.413 25.1759 187.534 26.754 182.49 27.5338C177.341 28.3444 172.12 28.5654 166.928 28.197C166.297 28.154 165.672 28.111 165.041 28.0558C164.434 28.0005 164.44 28.9523 165.041 29.0014C170.624 29.5172 176.244 29.3821 181.791 28.5961C187.283 27.8409 192.609 26.1584 197.543 23.6285C200.086 22.3083 202.47 20.6934 204.64 18.8205C206.963 16.9354 208.636 14.3687 209.427 11.4827C210.089 8.9651 209.555 6.28172 207.98 4.20625V4.19396Z" fill="#033A43"/>
<path d="M171.69 30.5242C169.435 30.5242 167.18 30.4198 164.93 30.211C164.317 30.1558 163.79 29.7935 163.533 29.2286C163.269 28.6575 163.318 27.9943 163.668 27.4908C163.999 27.0119 164.55 26.7601 165.151 26.8092C165.77 26.8645 166.389 26.9075 167.008 26.9505C172.113 27.3127 177.256 27.0917 182.306 26.2996C187.227 25.5382 191.971 24.003 196.409 21.7434C198.682 20.5767 200.834 19.1521 202.801 17.5187C204.897 15.9038 206.417 13.7669 207.232 11.2984C207.839 9.40718 207.526 7.28872 206.38 5.64922C205.24 4.16937 203.383 3.32199 201.471 3.40795C199.988 3.50006 197.941 4.62376 198.014 6.2387C198.039 6.77292 198.4 7.38083 198.891 7.70627C199.228 7.92733 199.553 7.98259 199.865 7.87206C200.742 7.54662 201.643 7.95803 201.968 8.82998C202.311 9.75104 201.876 10.7397 200.975 11.0835C200.3 11.3353 199.583 11.4028 198.891 11.2923C196.145 10.7212 194.349 8.24049 194.668 5.50185C195.158 2.16758 198.468 0.190353 201.336 0.00613946C204.266 -0.12281 207.11 1.14826 208.942 3.42023C208.948 3.43251 208.961 3.43865 208.967 3.45094C210.781 5.83957 211.382 8.8791 210.622 11.7835C209.751 14.952 207.956 17.7029 205.418 19.76C203.212 21.6758 200.742 23.346 198.112 24.7092C193.038 27.3128 187.607 29.0259 181.969 29.8058C178.567 30.2847 175.129 30.5303 171.697 30.5303L171.69 30.5242ZM165.145 27.7671H165.151C165.151 27.7671 165.151 27.7671 165.145 27.7671Z" fill="#033A43"/>
<path d="M220.165 34.8287C221.464 32.9743 221.194 30.4444 219.533 28.9093C217.695 27.4785 215.01 28.1663 213.41 29.6277C212.957 30.0391 213.625 30.7146 214.078 30.297C215.317 29.0444 217.223 28.7373 218.792 29.5356C220.557 30.69 220.207 33.2199 219.11 34.6936C217.762 36.3085 215.911 37.4261 213.858 37.8621C211.799 38.3533 209.66 38.4331 207.57 38.0954C205.044 37.6594 202.574 36.9656 200.196 36.0199C199.626 35.8111 199.387 36.7261 199.957 36.9349C204.523 38.6173 209.5 40.0481 214.342 38.7156C216.689 38.1691 218.761 36.7875 220.165 34.8225V34.8287Z" fill="#033A43"/>
<path d="M210.315 40.484C206.65 40.484 202.997 39.3787 199.528 38.0954C198.615 37.7577 198.174 36.7752 198.511 35.8541C198.83 34.9883 199.755 34.5585 200.613 34.8778C202.936 35.7989 205.339 36.4743 207.772 36.8919C209.696 37.205 211.652 37.1313 213.564 36.6769C215.36 36.2962 216.978 35.326 218.142 33.9383C218.639 33.2567 218.89 32.3111 218.761 31.5804C218.688 31.1567 218.491 30.8374 218.173 30.604C217.088 30.0821 215.801 30.3032 214.949 31.1628C214.937 31.1751 214.918 31.1935 214.906 31.2058C214.195 31.8505 213.135 31.7953 212.479 31.083C211.848 30.3891 211.891 29.3514 212.583 28.7189C214.526 26.9505 217.885 26.0724 220.281 27.9391C220.306 27.9575 220.336 27.9821 220.361 28.0066C222.469 29.9531 222.812 33.1892 221.164 35.5348C221.164 35.5348 221.164 35.5348 221.164 35.541C219.582 37.7515 217.26 39.2989 214.618 39.913C213.19 40.306 211.756 40.4779 210.322 40.4779L210.315 40.484Z" fill="#033A43"/>
</g>
<defs>
<clipPath id="clip0_589_8643">
<rect width="582" height="254" fill="white"/>
</clipPath>
</defs>
</svg>
