<svg width="118" height="113" viewBox="0 0 118 113" fill="none" xmlns="http://www.w3.org/2000/svg">
<g clip-path="url(#clip0_589_7798)">
<path d="M53.8411 63.8933C53.6708 63.1406 53.4882 62.3758 53.3301 61.6596C52.8069 59.2922 53.6464 56.8399 55.5202 55.2981C56.956 54.1206 58.9758 53.9749 60.5697 54.9339C61.5309 55.5167 62.1393 56.5364 62.2001 57.6655L62.4557 61.5139" fill="white"/>
<path d="M53.8409 65.7143C53.0135 65.7143 52.2591 65.1437 52.0645 64.3061C51.8819 63.5412 51.7116 62.7764 51.5534 62.0601C50.872 59.013 51.9549 55.893 54.3641 53.902C56.3961 52.2267 59.2676 52.0203 61.5186 53.3921C63.003 54.2905 63.9399 55.8566 64.0251 57.5926L64.2806 61.4167C64.3414 62.4244 63.587 63.2863 62.5771 63.3591C61.5916 63.4198 60.7034 62.6672 60.6303 61.6595L60.3748 57.8111C60.3505 57.2648 60.0706 56.7913 59.6204 56.5121C58.6957 55.9537 57.5155 56.0387 56.6881 56.7185C55.3375 57.8233 54.7413 59.5714 55.1185 61.271C55.2767 61.9752 55.447 62.74 55.6295 63.4805C55.8607 64.4639 55.2523 65.4351 54.2668 65.6658C54.1208 65.7022 53.9869 65.7143 53.8531 65.7143H53.8409Z" fill="#033A43"/>
<path d="M81.887 59.2072C81.9844 58.3938 82.0696 58.928 82.1426 58.0175C82.3494 55.6502 81.2178 53.3678 79.2224 52.081C77.6649 51.0734 75.633 51.1583 74.1729 52.2995C73.2846 52.9915 72.798 54.072 72.871 55.201L73.1995 60.2634" fill="white"/>
<path d="M73.1994 62.0723C72.2504 62.0723 71.4473 61.3318 71.3743 60.3727L71.0458 55.3103C70.9363 53.5864 71.6785 51.9232 73.0534 50.8549C75.134 49.2402 78.0056 49.1188 80.22 50.5514C82.7995 52.2146 84.2353 55.1403 83.9676 58.1875C83.9189 58.7216 83.8459 59.0494 83.7121 59.3651C83.7121 59.3772 83.7121 59.4015 83.7121 59.4258C83.5904 60.4213 82.69 61.1375 81.6923 61.0283C80.6946 60.919 79.9767 60.0085 80.0862 59.013C80.1349 58.576 80.2079 58.2725 80.3295 57.9932C80.3295 57.9568 80.3295 57.9204 80.3295 57.8718C80.4756 56.1722 79.6725 54.5454 78.2367 53.6228C77.3242 53.0401 76.1439 53.0886 75.2922 53.7442C74.8785 54.0598 74.6473 54.5697 74.6838 55.0918L75.0124 60.1542C75.0732 61.1618 74.3188 62.0237 73.3089 62.0844C73.2724 62.0844 73.2238 62.0844 73.1872 62.0844L73.1994 62.0723Z" fill="#033A43"/>
<path d="M41.783 77.1017C41.783 77.1017 27.7904 81.2901 15.2823 71.4566C15.2579 71.4323 15.2214 71.408 15.1971 71.3838C14.1385 70.4975 12.9339 69.842 11.6199 69.4656C9.62439 68.8829 7.72627 67.6567 5.98632 65.6172C-0.0852368 58.4546 -6.99635 42.6117 18.3485 19.1449C19.1637 18.3801 20.4899 19.0114 20.4048 20.1283L18.1538 50.7942L35.4802 29.5611C36.186 28.687 37.5974 29.1362 37.6704 30.2531C38.1936 37.9014 37.5852 45.926 34.8354 53.1251C33.6551 56.2208 31.2703 59.7657 28.2893 62.8007C26.6953 64.4153 26.671 67.0133 28.2893 68.6037C31.1243 71.3838 35.2491 73.8968 40.9556 74.1031C54.0478 74.5645 41.783 77.1139 41.783 77.1139V77.1017Z" fill="#DA6A9E"/>
<path d="M113.267 34.4172C113.084 35.7769 112.744 36.9787 112.281 38.0349C111.758 39.2125 111.6 40.4872 111.673 41.7862C111.673 41.944 111.673 42.1018 111.673 42.2718C110.189 58.1025 97.4979 65.3137 97.4979 65.3137C97.4979 65.3137 87.1799 72.4278 95.8796 62.6429C99.6515 58.406 100.674 53.7321 100.625 49.7744C100.588 47.0793 98.4956 44.9062 95.8066 44.542C90.6354 43.8379 85.5007 41.7862 82.2277 39.3582C76.0223 34.7692 71.1918 28.3228 67.5051 21.5972C66.9697 20.6139 67.9188 19.4849 68.9895 19.8369L95.0279 28.4564L76.6063 3.78771C75.9493 2.88934 76.728 1.65105 77.8231 1.84529C111.831 8.07316 114.532 25.13 113.267 34.4172Z" fill="#DA6A9E"/>
<path d="M34.361 79.8211C28.8734 79.8211 21.3174 78.51 14.1508 72.877L14.0535 72.8041C13.1409 72.0393 12.1675 71.5173 11.1089 71.2016C8.67545 70.4854 6.48531 69.0043 4.59935 66.7826C2.67689 64.5124 1.16813 62.0116 0.133896 59.3772C-0.231128 58.4424 0.231236 57.3862 1.16813 57.022C2.10502 56.6578 3.16359 57.1191 3.52862 58.0539C4.41684 60.3241 5.70659 62.4608 7.3857 64.4275C8.79712 66.0907 10.3911 67.1954 12.131 67.7053C13.6763 68.1545 15.112 68.9193 16.3775 69.9876C25.2475 76.956 35.0058 76.434 39.1914 75.7785C34.58 75.2564 30.4917 73.2776 27.024 69.8905C25.9046 68.7979 25.284 67.3289 25.2597 65.7629C25.2475 64.1725 25.8559 62.6672 26.9875 61.526C29.7738 58.6973 32.0126 55.4074 33.132 52.4816C35.3708 46.6301 36.3077 39.6981 35.9427 31.892L19.5775 51.9475C19.0786 52.5666 18.2269 52.7851 17.4847 52.4938C16.7425 52.2024 16.2801 51.4619 16.3409 50.6727L18.4824 21.5365C13.3721 26.4168 9.4055 31.2122 6.69215 35.8254C6.18112 36.6874 5.06172 36.9787 4.19783 36.4688C3.33394 35.959 3.04192 34.8421 3.55295 33.9801C6.65565 28.7235 11.2184 23.2847 17.1318 17.8095C18.0444 16.9476 19.3828 16.7412 20.5266 17.2875C21.6703 17.8338 22.3517 18.9992 22.2543 20.2618L20.4292 45.149L34.0933 28.3957C34.8842 27.4123 36.1739 27.0238 37.3906 27.4123C38.6074 27.8008 39.4348 28.857 39.5199 30.1196C40.1283 39.079 39.1428 47.0307 36.5633 53.7563C35.2613 57.1313 32.7305 60.8826 29.6035 64.0511C29.1654 64.5003 28.9221 65.083 28.9221 65.7022C28.9221 66.297 29.1654 66.8555 29.5913 67.2683C32.8035 70.4125 36.6606 72.0879 41.0409 72.2457C46.3946 72.4399 48.6577 72.8527 48.8402 74.9408C48.9741 76.519 47.9398 77.6602 42.2455 78.8499C41.6614 79.0199 38.6561 79.809 34.3853 79.809L34.361 79.8211Z" fill="#033A43"/>
<path d="M92.6309 69.6356C91.9373 69.6356 91.475 69.3563 91.0734 68.9072C89.6863 67.3411 90.9396 65.4108 94.4925 61.4167C97.3884 58.1632 98.8363 54.2419 98.7754 49.7865C98.7633 48.7789 99.5663 47.9534 100.576 47.9412H100.601C101.598 47.9412 102.414 48.7425 102.426 49.738C102.487 54.5454 101.112 58.843 98.3131 62.5093C101.671 59.9478 108.789 53.2707 109.836 42.0776C109.836 42.0047 109.836 41.944 109.836 41.8712C109.738 40.1716 109.994 38.6298 110.59 37.2822C110.992 36.3596 111.284 35.3155 111.442 34.1622C112.634 25.4335 109.933 10.0399 78.9668 3.9091L96.4636 27.3395C96.9382 27.9829 96.9503 28.8449 96.4758 29.4883C96.0134 30.1317 95.1739 30.3988 94.4195 30.156L69.8169 22.01C71.6785 25.2392 73.6861 28.165 75.8155 30.7266C76.4603 31.5035 76.3508 32.6447 75.5843 33.2881C74.8055 33.9316 73.6618 33.8223 73.0169 33.0575C70.4496 29.9739 68.0526 26.4047 65.8746 22.447C65.2663 21.3301 65.4001 19.9947 66.2153 19.0235C67.0305 18.0523 68.3325 17.6881 69.537 18.0766L90.0757 24.875L75.1219 4.85603C74.3675 3.82412 74.3189 2.48871 74.9881 1.42038C75.6573 0.352055 76.8862 -0.182109 78.1273 0.0242728C113.486 6.49494 116.443 24.4866 115.055 34.6357C114.849 36.1289 114.471 37.5129 113.924 38.739C113.559 39.5646 113.413 40.5236 113.474 41.6405C113.486 41.8833 113.474 42.1383 113.462 42.3932C111.953 58.5152 99.6393 66.1028 98.4469 66.8069C95.4781 68.8465 93.7503 69.6113 92.6187 69.6113L92.6309 69.6356Z" fill="#033A43"/>
<path d="M25.8316 97.7763C25.6247 97.7763 25.4179 97.7399 25.211 97.667C24.262 97.3271 23.7753 96.2831 24.116 95.3362L26.1114 89.861C27.1092 87.1173 29.3723 84.9928 32.1708 84.1551L49.4364 79.032C50.4098 78.7406 51.4197 79.2991 51.7118 80.2582C52.0038 81.2172 51.4441 82.237 50.4828 82.5284L33.2172 87.6515C31.5259 88.1614 30.151 89.4482 29.5426 91.1114L27.5472 96.5866C27.2795 97.3271 26.5738 97.7885 25.8316 97.7885V97.7763Z" fill="#033A43"/>
<path d="M35.0909 102.948C35.0301 102.948 34.9692 102.948 34.8962 102.948C33.8985 102.851 33.1684 101.953 33.2658 100.945L33.789 95.8582C34.1418 92.4225 36.6483 89.6182 40.0309 88.8655L53.4394 85.8912C54.425 85.6726 55.3984 86.2918 55.6174 87.2751C55.8364 88.2585 55.2159 89.2297 54.2303 89.4482L40.8218 92.4225C38.9845 92.8353 37.6096 94.3649 37.4149 96.2345L36.8917 101.321C36.7943 102.256 36.0035 102.96 35.0787 102.96L35.0909 102.948Z" fill="#033A43"/>
<path d="M47.1853 113C46.2849 113 45.494 112.332 45.3724 111.41C45.3115 110.924 45.0195 109.467 43.8271 105.085C42.9389 101.843 44.2286 98.4197 47.0393 96.5744L55.9337 90.7229C56.7733 90.1645 57.9048 90.3951 58.4645 91.2449C59.0242 92.0826 58.7931 93.2116 57.9413 93.7701L49.0469 99.6216C47.5625 100.605 46.8811 102.414 47.3435 104.138C48.7914 109.407 48.9374 110.572 48.9861 110.96C49.1199 111.956 48.4142 112.866 47.4165 113C47.3313 113 47.2583 113.012 47.1853 113.012V113Z" fill="#033A43"/>
<path d="M116.175 80.768C115.7 80.768 115.226 80.5859 114.861 80.2217L110.785 76.0455C109.556 74.783 107.767 74.176 106.015 74.4066L88.1654 76.8104C87.1798 76.9561 86.2429 76.2519 86.109 75.2443C85.9752 74.2367 86.6688 73.3262 87.6787 73.1926L105.528 70.7889C108.424 70.3883 111.369 71.408 113.401 73.4961L117.477 77.6723C118.182 78.3886 118.158 79.5419 117.44 80.246C117.087 80.5859 116.625 80.7559 116.163 80.7559L116.175 80.768Z" fill="#033A43"/>
<path d="M109.872 89.2783C109.239 89.2783 108.631 88.9505 108.29 88.3677L105.711 83.9488C104.762 82.322 102.888 81.4843 101.038 81.8728L87.5813 84.665C86.6079 84.8714 85.6345 84.2401 85.4276 83.2568C85.2208 82.2734 85.8535 81.3143 86.839 81.108L100.284 78.3158C103.667 77.6116 107.11 79.1534 108.85 82.1277L111.429 86.5467C111.941 87.4208 111.636 88.5256 110.772 89.0354C110.48 89.2054 110.164 89.2783 109.86 89.2783H109.872Z" fill="#033A43"/>
<path d="M105.638 102.013C104.859 102.013 104.129 101.503 103.898 100.726C103.594 99.7309 103.156 97.4121 102.596 93.8308C102.316 92.0705 100.953 90.6986 99.1891 90.4073L88.6764 88.7198C87.6787 88.562 87.0095 87.6272 87.1677 86.6317C87.3258 85.6362 88.2627 84.9564 89.2605 85.1263L99.7732 86.8138C103.095 87.348 105.687 89.946 106.21 93.2602C106.915 97.7399 107.256 99.1846 107.402 99.658C107.694 100.617 107.147 101.637 106.185 101.928C106.003 101.977 105.833 102.001 105.65 102.001L105.638 102.013Z" fill="#033A43"/>
<path d="M42.2211 68.5794C43.4865 67.6203 45.0196 66.989 46.6257 66.4427C53.5734 64.0511 60.6791 63.9054 67.8458 62.7764C75.0002 61.6474 82.0452 60.2756 89.3213 59.9235C94.6142 59.6807 99.1648 63.6626 99.5542 68.9314C100.588 82.7226 91.6088 97.7156 78.1273 101.94C69.1842 104.733 60.2533 101.734 53.33 95.8096C49.8258 92.811 46.8448 89.1933 44.3383 85.3327C41.8683 81.5207 38.0112 76.6525 39.812 71.8208C40.3352 70.4125 41.1869 69.3928 42.2211 68.5915V68.5794Z" fill="#DA6A9E"/>
<path d="M71.5569 104.733C64.8161 104.733 57.6251 102.11 51.2737 97.1693C47.3193 94.0857 43.9124 90.2859 41.4424 86.1582C39.4956 82.9047 33.5579 72.9984 41.0409 67.1469C41.2842 66.9526 41.5398 66.7705 41.8196 66.5884C46.6501 63.3834 52.3445 62.8007 57.8685 62.2423C59.9613 62.0237 61.9324 61.8295 63.8305 61.4896C72.0557 60.0328 80.573 58.5152 89.224 58.1146C95.5876 57.7868 100.893 62.5093 101.367 68.7979C101.988 77.0167 99.2987 85.6969 93.9815 92.641C93.3731 93.4423 92.2294 93.588 91.4263 92.981C90.6233 92.374 90.4773 91.2328 91.0856 90.4315C95.8675 84.1915 98.2888 76.4097 97.7291 69.0771C97.4006 64.7674 93.7381 61.5503 89.3944 61.7566C80.9745 62.1573 72.5789 63.6384 64.4632 65.083C62.4313 65.4472 60.2898 65.6658 58.2335 65.8721C53.1597 66.3942 47.9155 66.9283 43.8394 69.6356C43.6447 69.7691 43.4622 69.9026 43.2919 70.0362C39.8728 72.707 40.2743 77.1139 44.5816 84.3008C46.8204 88.04 49.911 91.4999 53.5247 94.3164C61.2267 100.314 70.2184 102.523 77.5676 100.229C79.9889 99.4759 82.3251 98.3105 84.5152 96.793C85.3426 96.2224 86.4742 96.4166 87.0582 97.2421C87.6301 98.0677 87.4354 99.1967 86.608 99.7794C84.1137 101.515 81.449 102.839 78.6627 103.713C76.3995 104.417 74.0147 104.769 71.569 104.769L71.5569 104.733Z" fill="#033A43"/>
<path d="M57.7101 61.4774C58.4695 61.4774 59.0851 60.8632 59.0851 60.1056C59.0851 59.348 58.4695 58.7338 57.7101 58.7338C56.9508 58.7338 56.3352 59.348 56.3352 60.1056C56.3352 60.8632 56.9508 61.4774 57.7101 61.4774Z" fill="#033A43"/>
<path d="M77.2756 58.6367C78.0349 58.6367 78.6505 58.0225 78.6505 57.2648C78.6505 56.5072 78.0349 55.893 77.2756 55.893C76.5162 55.893 75.9006 56.5072 75.9006 57.2648C75.9006 58.0225 76.5162 58.6367 77.2756 58.6367Z" fill="#033A43"/>
<path d="M69.6952 80.2946C67.6876 80.2946 65.7043 79.6147 64.0008 78.3036C61.8837 76.6768 60.4236 74.2852 59.9004 71.5416C59.7057 70.5582 60.3628 69.5992 61.3483 69.4049C62.3461 69.2228 63.2951 69.8663 63.4898 70.8496C63.8427 72.707 64.8161 74.3338 66.2275 75.4021C67.5781 76.434 69.1598 76.8347 70.6929 76.5433C72.226 76.2519 73.5523 75.2929 74.4284 73.8361C75.3409 72.3185 75.6451 70.449 75.2922 68.5915C75.0976 67.6082 75.7546 66.6491 76.7402 66.4549C77.7379 66.2728 78.687 66.9162 78.8816 67.8996C79.4048 70.6432 78.9425 73.4112 77.5676 75.6935C76.1561 78.0487 73.966 79.6147 71.3865 80.1125C70.8268 80.2217 70.2671 80.2703 69.7074 80.2703L69.6952 80.2946Z" fill="#033A43"/>
</g>
<defs>
<clipPath id="clip0_589_7798">
<rect width="118" height="113" fill="white"/>
</clipPath>
</defs>
</svg>
