<svg width="188" height="133" viewBox="0 0 188 133" fill="none" xmlns="http://www.w3.org/2000/svg">
<g clip-path="url(#clip0_589_8157)">
<path d="M68.6029 130.989C65.4321 130.518 62.3097 129.751 59.291 128.673C53.9649 126.772 44.3836 123.468 37.0888 121.595C28.9789 119.507 17.6636 119.203 12.6968 119.182C9.93362 119.168 7.24643 118.069 5.41582 116.01C3.29508 113.639 2.05165 109.802 5.88556 104.079C6.45892 103.229 6.4382 102.116 5.86484 101.259C3.39179 97.5882 -1.92733 87.51 8.12374 80.3972C17.111 74.0379 28.4677 74.3006 34.1391 74.9503C36.4533 75.213 38.7882 74.8536 40.9158 73.9066C50.8011 69.5172 83.2408 59.0105 134.671 80.0931C134.671 80.0931 139.969 82.8027 147.057 84.987C159.85 88.927 169.673 73.2292 160.492 63.4897C159.104 62.0105 157.439 60.4967 155.464 58.9414L155.318 58.1465C151.27 61.0497 146.304 61.8446 140.508 58.8515C138.442 57.7801 136.453 56.4599 134.277 55.7202C130.063 54.2825 125.49 53.3631 121.138 52.4369C120.599 52.3263 120.385 51.6558 120.779 51.3033L122.844 49.4577C123.272 49.0706 123.666 48.6489 124.025 48.1927C125.856 45.8149 133.096 37.368 144.286 35.8335C145.758 35.6261 146.787 34.3474 146.58 32.8612C146.131 29.6539 146.393 23.7508 151.422 15.8569C151.906 15.0965 152.32 14.2947 152.693 13.4721L157.66 2.37094C157.916 1.7834 158.772 1.80413 159.069 2.40551C162.966 10.3547 167.193 18.5873 167.704 27.6009C168.057 33.8151 166.116 42.9048 162.171 49.9899L163.525 50.612C212.288 85.0147 170.081 109.353 164.617 112.263C164.188 112.491 163.767 112.726 163.352 112.975C143.388 125.044 116.295 138.081 68.6029 130.989Z" fill="#ADF0E9"/>
<path d="M46.9672 102.565C48.436 102.565 49.6267 101.374 49.6267 99.9038C49.6267 98.434 48.436 97.2426 46.9672 97.2426C45.4983 97.2426 44.3076 98.434 44.3076 99.9038C44.3076 101.374 45.4983 102.565 46.9672 102.565Z" fill="#033A43"/>
<path d="M18.092 115.415C10.8594 115.415 4.37278 114.627 3.02573 114.447C2.07934 114.323 1.41618 113.459 1.53361 112.512C1.65795 111.565 2.52145 110.901 3.46784 111.019C10.659 111.952 30.5885 113.293 36.3152 108.344C37.2408 107.542 37.6829 106.664 37.7037 105.586C37.7175 104.632 38.5395 103.865 39.4583 103.885C40.4116 103.899 41.1715 104.687 41.1576 105.641C41.1231 107.722 40.2527 109.505 38.5741 110.957C34.4707 114.503 25.8496 115.408 18.092 115.408V115.415Z" fill="#033A43"/>
<path d="M97.8995 130.131C93.8722 130.131 86.757 129.565 80.3395 126.157C79.2135 125.638 71.373 121.823 70.3782 116.286C70.0881 114.689 70.2746 112.256 72.7684 109.754C76.775 105.745 82.8264 104.134 88.5669 105.544C93.9758 106.871 98.0101 110.59 99.6265 115.754C100.898 119.804 101.796 123.019 102.307 125.314C102.569 126.482 102.293 127.684 101.547 128.625C100.801 129.565 99.6887 130.111 98.4936 130.131C98.3002 130.131 98.1068 130.131 97.8995 130.131ZM84.4221 108.496C80.9474 108.496 77.6109 109.802 75.2138 112.201C74.0395 113.376 73.5697 114.51 73.777 115.671C74.3641 118.947 79.7869 122.099 81.8247 123.032C81.8523 123.046 81.8869 123.06 81.9214 123.081C87.9935 126.323 94.8738 126.717 98.4522 126.668C98.6663 126.668 98.7907 126.544 98.8459 126.475C98.915 126.392 98.9841 126.247 98.9426 126.06C98.4522 123.862 97.5749 120.738 96.3383 116.784C95.0949 112.809 91.9656 109.934 87.7517 108.897C86.6465 108.627 85.5343 108.496 84.429 108.496H84.4221Z" fill="#033A43"/>
<path d="M128.64 129.938C127.887 129.938 127.189 129.44 126.975 128.68C126.72 127.76 127.251 126.807 128.17 126.551C142.228 122.597 153.136 116.618 161.95 111.288C162.392 111.019 162.841 110.77 163.297 110.528C166.675 108.731 183.579 99.0052 184.505 84.2197C185.161 73.7337 177.638 62.8676 162.15 51.9115L160.942 51.3586C160.506 51.1581 160.168 50.7848 160.023 50.3286C159.871 49.8724 159.919 49.3678 160.154 48.9531C161.57 46.4162 162.8 43.4301 163.712 40.3196C163.981 39.4071 164.941 38.8818 165.853 39.1514C166.772 39.421 167.29 40.3818 167.021 41.2942C166.212 44.0522 165.204 46.6443 164.023 49.0153C180.636 60.7386 188.684 72.6623 187.945 84.4478C186.909 101.065 168.575 111.641 164.914 113.597C164.513 113.811 164.112 114.033 163.725 114.268C154.718 119.715 143.554 125.832 129.096 129.896C128.937 129.938 128.785 129.959 128.626 129.959L128.64 129.938Z" fill="#033A43"/>
<path d="M150.593 87.1229C149.101 87.1229 147.568 86.8948 146.041 86.4248C139.237 84.3303 134.118 81.7935 133.448 81.4548C131.451 80.6392 129.434 79.8512 127.459 79.1115C126.568 78.7797 126.112 77.7844 126.443 76.8858C126.775 75.9941 127.77 75.5379 128.668 75.8697C130.699 76.6231 132.764 77.4388 134.823 78.2751C134.864 78.2959 134.912 78.3166 134.954 78.3374C135.009 78.365 140.218 81.0055 147.063 83.1207C153.225 85.0147 157.916 81.6622 160.064 78.2129C162.199 74.7844 163.131 69.1232 158.731 64.4643C157.46 63.1164 155.947 61.734 154.227 60.3584C149.619 62.9436 144.466 62.8952 139.209 60.1787C138.574 59.8469 137.945 59.4944 137.316 59.1488C135.914 58.3608 134.588 57.6211 133.213 57.1511C129.441 55.8654 125.331 54.9944 121.359 54.1511L120.268 53.923C119.376 53.7364 118.665 53.0659 118.423 52.1742C118.188 51.3102 118.458 50.3978 119.121 49.8102L121.186 47.9646C121.532 47.6536 121.863 47.301 122.16 46.9209C124.184 44.2942 131.742 35.5363 143.54 33.9188C144.003 33.8566 144.438 33.4833 144.356 32.8958C143.824 29.094 144.273 22.8522 149.454 14.7233C149.854 14.0942 150.234 13.3823 150.607 12.5528L155.567 1.45852C155.94 0.594476 156.783 0.0345778 157.75 0.00692848C158.724 -0.0276331 159.657 0.539177 160.099 1.43087L160.624 2.50228C163.422 8.19112 166.309 14.0735 167.85 20.3568C168.077 21.2831 167.511 22.2162 166.585 22.4443C165.653 22.6724 164.72 22.1056 164.499 21.1794C163.118 15.5113 160.486 10.0436 157.888 4.74187L153.764 13.9629C153.315 14.9514 152.866 15.8016 152.376 16.5689C147.519 24.1931 147.416 29.7645 147.789 32.405C148.127 34.8243 146.476 36.9809 144.024 37.3266C133.517 38.7643 126.726 46.6444 124.889 49.0291C124.461 49.5752 123.998 50.0729 123.5 50.5222L123.017 50.9577C126.802 51.7595 130.678 52.6166 134.332 53.8677C136.004 54.4346 137.537 55.2917 139.016 56.1212C139.61 56.453 140.204 56.7847 140.805 57.0958C145.516 59.5289 149.889 59.3354 153.813 56.5221C154.296 56.1765 154.918 56.1004 155.464 56.3216C156.009 56.5428 156.41 57.0336 156.514 57.6142L156.541 57.7732C158.33 59.211 159.905 60.6626 161.246 62.0865C165.971 67.0979 166.654 74.1416 162.993 80.0309C160.161 84.5792 155.574 87.116 150.593 87.116V87.1229ZM120.979 50.5291H120.993C120.993 50.5291 120.986 50.5291 120.979 50.5291ZM158.738 2.84789V2.86863C158.738 2.86863 158.738 2.8548 158.738 2.84789Z" fill="#033A43"/>
<path d="M68.0986 132.502C68.0157 132.502 67.9259 132.502 67.843 132.482C64.5272 131.991 61.2804 131.182 58.2064 130.083C53.0945 128.258 43.4372 124.92 36.1562 123.053C28.1084 120.979 16.7103 120.717 12.1856 120.696C8.84904 120.682 5.72664 119.314 3.61971 116.943C1.68549 114.779 -0.85664 110.072 3.94439 102.904C4.124 102.641 4.11018 102.289 3.92366 102.005C1.64404 98.6181 -4.91161 86.9294 6.61777 78.7729C16.0057 72.1301 27.6939 72.3167 33.8282 73.0218C35.8315 73.2499 37.8624 72.9389 39.7069 72.1163C47.7546 68.5426 70.24 61.0773 105.208 68.8606C106.141 69.068 106.728 69.9942 106.521 70.9205C106.313 71.8467 105.395 72.4412 104.462 72.2338C70.4956 64.6717 48.8392 71.8398 41.1092 75.2752C38.7052 76.3466 36.0526 76.7545 33.4414 76.4572C27.7976 75.8144 17.0695 75.6208 8.61417 81.6C5.00131 84.1576 -0.0345943 89.957 6.79047 100.084C7.76449 101.542 7.7714 103.408 6.81119 104.839C4.14472 108.821 3.93748 112.125 6.19638 114.648C7.65396 116.286 9.84378 117.233 12.1994 117.247C16.8554 117.268 28.592 117.544 37.0128 119.715C44.425 121.615 54.1998 124.996 59.3669 126.841C62.2337 127.864 65.2525 128.618 68.3542 129.074C69.3006 129.212 69.9499 130.09 69.8117 131.037C69.6874 131.894 68.9482 132.509 68.1055 132.509L68.0986 132.502Z" fill="#033A43"/>
</g>
<defs>
<clipPath id="clip0_589_8157">
<rect width="188" height="133" fill="white"/>
</clipPath>
</defs>
</svg>
