<svg width="235" height="75" viewBox="0 0 235 75" fill="none" xmlns="http://www.w3.org/2000/svg">
<g clip-path="url(#clip0_589_8254)">
<path d="M186.194 74.055L2.31299 73.1213L59.5855 15.7492L206.666 16.1711C207.78 16.1711 208.685 17.071 208.685 18.1791L186.194 74.055Z" fill="#FBF2DB"/>
<path d="M127.162 28.3711C130.311 28.3711 132.863 27.2555 132.863 25.8793C132.863 24.5032 130.311 23.3876 127.162 23.3876C124.014 23.3876 121.462 24.5032 121.462 25.8793C121.462 27.2555 124.014 28.3711 127.162 28.3711Z" fill="white"/>
<path d="M128.474 63.3399C131.623 63.3399 134.175 62.2244 134.175 60.8482C134.175 59.472 131.623 58.3564 128.474 58.3564C125.326 58.3564 122.774 59.472 122.774 60.8482C122.774 62.2244 125.326 63.3399 128.474 63.3399Z" fill="white"/>
<path d="M103.036 6.90153C104.037 6.29969 104.716 5.28724 104.88 4.13417C105.106 2.08677 103.624 0.24749 101.566 0.022501C100.836 -0.0562451 100.095 0.0787482 99.4395 0.416231C97.1829 1.70429 96.8436 6.29406 99.7788 7.39088C98.1161 14.1012 95.967 17.2679 97.7598 18.5053C99.0379 19.0284 100.429 19.1915 101.798 18.9947C103.059 19.1465 104.337 18.8991 105.451 18.2972C107.951 16.3848 104.026 12.4756 103.031 6.90153H103.036Z" fill="#F3B12E"/>
<path d="M135.035 61.3151C135.04 61.2644 135.018 61.2138 134.972 61.1857C134.899 60.3026 134.379 59.5208 133.593 59.1158C132.23 58.5196 130.714 58.3621 129.26 58.6714C126.8 58.6714 122.061 59.3127 122.463 61.7144C122.095 65.0218 125.121 65.4099 128.452 65.4549C132.331 65.5055 135.402 65.1061 135.04 61.3151H135.035ZM123.792 60.6176C125.511 59.7289 127.439 59.3014 129.379 59.3914C130.448 59.3464 131.517 59.4308 132.569 59.6445C133.655 60.0101 134.695 61.2138 133.502 62.1363C131.54 63.6606 127.315 63.4243 124.94 62.6031C124.261 62.3669 123.797 62.2375 123.56 61.5457C123.373 60.9945 123.39 60.9551 123.792 60.6176ZM125.025 64.4874C123.927 64.2174 123.13 63.6999 123.006 62.5863C125.064 64.403 132.744 64.8136 134.543 62.3725C134.497 62.7212 134.373 63.0531 134.175 63.3456C133.078 65.2355 127.134 65.0105 125.025 64.4874Z" fill="#033A43"/>
<path d="M128.995 66.0229C128.814 66.0229 128.627 66.0229 128.435 66.0229C125.748 65.9892 123.729 65.708 122.627 64.4705C122.022 63.7843 121.767 62.8675 121.88 61.7369C121.801 61.1238 121.976 60.5445 122.389 60.0551C123.944 58.2327 128.429 58.1258 129.187 58.1202C130.754 57.7996 132.348 57.9684 133.807 58.6152C134.752 59.1045 135.363 59.9708 135.504 60.972C135.561 61.0732 135.595 61.1913 135.589 61.3094C135.713 62.6819 135.414 63.7618 134.707 64.5268C133.581 65.7417 131.602 66.0342 128.983 66.0342L128.995 66.0229ZM124.029 61.1576C124.052 61.2307 124.08 61.3207 124.097 61.3657C124.227 61.7482 124.414 61.8269 125.036 62.0406L125.132 62.0744C127.264 62.8112 131.353 63.0981 133.157 61.6975C133.513 61.4219 133.474 61.2138 133.462 61.1463C133.406 60.7976 132.948 60.3814 132.422 60.1901C131.432 59.9933 130.414 59.9145 129.408 59.9539C127.541 59.8751 125.732 60.2632 124.114 61.0901C124.086 61.1126 124.058 61.1351 124.035 61.1632L124.029 61.1576ZM123.006 62.0181C123.056 62.0181 123.107 62.0238 123.158 62.0406C123.107 61.945 123.062 61.8438 123.023 61.7313C123.023 61.7313 123.023 61.7257 123.023 61.72C123.023 61.7369 123.023 61.7594 123.023 61.7763C123.011 61.8607 123.006 61.9394 123 62.0181H123.011H123.006ZM134.492 61.765C134.492 61.765 134.48 61.7988 134.469 61.8157C134.475 61.8157 134.486 61.8157 134.492 61.8157C134.492 61.7988 134.492 61.7819 134.492 61.7707V61.765Z" fill="#033A43"/>
<path d="M220.358 55.9491C220.285 55.021 219.736 54.1885 218.91 53.7442C217.27 52.7936 212.197 53.3561 210.495 53.806C209.539 54.0592 208.278 54.481 207.882 55.4991C207.769 55.7634 207.73 56.0559 207.775 56.3428C207.407 59.6501 210.433 60.0382 213.764 60.0832C217.638 60.1451 220.714 59.7514 220.352 55.9491H220.358ZM209.121 55.2516C210.846 53.9635 216.32 53.761 217.898 54.2785C218.984 54.6441 220.024 55.8478 218.831 56.7703C216.869 58.2946 212.644 58.0583 210.269 57.2371C209.59 57.0009 209.126 56.8715 208.889 56.1797C208.702 55.6284 208.719 55.5891 209.121 55.246V55.2516ZM210.354 59.1158C209.256 58.8458 208.459 58.3283 208.335 57.2146C210.393 59.0314 218.073 59.442 219.872 57.0009C219.832 57.3496 219.702 57.6815 219.504 57.974C218.401 59.8639 212.469 59.6389 210.354 59.1158Z" fill="#033A43"/>
<path d="M214.386 60.6514C214.182 60.6514 213.973 60.6514 213.764 60.6514C211.078 60.6176 209.059 60.3364 207.956 59.0989C207.351 58.4127 207.096 57.4959 207.209 56.3597C207.164 55.9941 207.221 55.6229 207.362 55.2854C207.837 54.0761 209.211 53.5755 210.354 53.2717C211.818 52.8836 217.265 52.1468 219.199 53.2717C220.183 53.8005 220.828 54.7904 220.924 55.9097C221.054 57.299 220.76 58.3958 220.041 59.1664C218.922 60.3701 216.971 60.6626 214.386 60.6626V60.6514ZM209.353 55.7916C209.375 55.8647 209.404 55.9547 209.421 55.9997C209.551 56.3822 209.737 56.4609 210.365 56.6747L210.455 56.7084C212.927 57.5578 216.829 57.614 218.486 56.3316C218.842 56.056 218.803 55.8478 218.792 55.7804C218.729 55.4204 218.26 54.9985 217.717 54.8129C216.303 54.346 211.032 54.5373 209.466 55.7016C209.454 55.7072 209.449 55.7129 209.437 55.7185C209.409 55.741 209.381 55.7635 209.358 55.786L209.353 55.7916ZM208.335 56.6522C208.386 56.6522 208.436 56.6578 208.487 56.6747C208.436 56.5791 208.391 56.4778 208.352 56.3653C208.352 56.3653 208.352 56.3597 208.352 56.3541C208.352 56.371 208.352 56.3878 208.352 56.4047C208.34 56.4891 208.335 56.5734 208.329 56.6522H208.34H208.335ZM219.821 56.3934C219.821 56.3934 219.81 56.4272 219.798 56.4441C219.804 56.4441 219.815 56.4441 219.821 56.4441C219.821 56.4272 219.821 56.4103 219.821 56.3934Z" fill="#033A43"/>
<path d="M234.406 68.0141C234.327 67.086 233.784 66.2535 232.958 65.8092C231.233 64.8136 226.268 65.4155 224.543 65.8711C223.587 66.1242 222.326 66.546 221.93 67.5641C221.817 67.8285 221.778 68.1209 221.823 68.4078C221.455 71.7208 224.481 72.1032 227.812 72.1482C231.692 72.2045 234.762 71.8051 234.401 68.0141H234.406ZM223.163 67.3335C224.826 66.0623 230.351 65.8373 231.94 66.3604C233.026 66.726 234.067 67.9297 232.874 68.8522C230.911 70.3765 226.687 70.1402 224.311 69.319C223.633 69.0828 223.163 68.959 222.931 68.2616C222.739 67.6878 222.756 67.6428 223.174 67.3279H223.163V67.3335ZM231.895 71.1189C229.429 71.6645 226.873 71.687 224.396 71.1808C223.299 70.9108 222.501 70.3933 222.377 69.2796C224.441 71.0964 232.116 71.507 233.914 69.0659C233.778 70.1177 232.953 70.9558 231.895 71.1189Z" fill="#033A43"/>
<path d="M228.411 72.7164C228.214 72.7164 228.01 72.7164 227.806 72.7164C225.64 72.6883 223.225 72.542 222.004 71.164C221.393 70.4777 221.144 69.5553 221.257 68.4191C221.212 68.0535 221.269 67.6823 221.41 67.3448C221.885 66.1411 223.254 65.6349 224.396 65.3311C226.127 64.8755 231.296 64.2006 233.241 65.3311C234.22 65.8598 234.87 66.8498 234.966 67.9691C235.096 69.3584 234.802 70.4496 234.09 71.2202C232.97 72.4295 231.007 72.7164 228.417 72.7164H228.411ZM223.401 67.8735C223.423 67.9466 223.452 68.0422 223.469 68.0872C223.593 68.4641 223.774 68.5428 224.379 68.751L224.498 68.7903C226.964 69.6397 230.872 69.6959 232.529 68.4135C232.879 68.1379 232.845 67.9297 232.834 67.8622C232.772 67.5023 232.302 67.0804 231.759 66.8948C230.385 66.4392 225.154 66.6248 223.57 67.7329C223.553 67.7497 223.536 67.7666 223.514 67.7835C223.491 67.8004 223.44 67.8397 223.401 67.8735ZM222.377 68.7172C222.422 68.7172 222.468 68.7172 222.513 68.7341C222.468 68.6441 222.428 68.5485 222.394 68.4472V68.436C222.394 68.436 222.394 68.4585 222.388 68.4697C222.377 68.5541 222.371 68.6385 222.366 68.7172H222.377ZM233.863 68.481C233.863 68.481 233.858 68.4978 233.852 68.5091C233.852 68.5091 233.858 68.5091 233.863 68.5091C233.863 68.4978 233.863 68.4922 233.863 68.481Z" fill="#033A43"/>
<path d="M133.734 25.3281C133.655 24.4 133.112 23.5676 132.286 23.1232C130.646 22.1726 125.573 22.7351 123.871 23.1851C122.915 23.4382 121.654 23.86 121.258 24.8781C121.145 25.1425 121.105 25.435 121.151 25.7218C120.783 29.0292 123.809 29.4173 127.14 29.4623C131.093 29.5185 134.034 29.1416 133.728 25.3281H133.734ZM131.251 23.6744C132.337 24.04 133.378 25.2437 132.19 26.1662C130.222 27.6905 126.003 27.4542 123.628 26.633C122.949 26.3968 122.48 26.2674 122.248 25.5756C121.546 23.4776 129.374 23.0501 131.257 23.6744H131.251ZM131.234 28.4386C128.768 28.9898 126.212 29.0067 123.735 28.5004C122.638 28.2304 121.841 27.713 121.716 26.5993C123.775 28.4161 131.455 28.8267 133.253 26.3855C133.106 27.4374 132.286 28.2642 131.234 28.4329V28.4386Z" fill="#033A43"/>
<path d="M127.779 30.0304C127.569 30.0304 127.355 30.0304 127.14 30.0304C124.453 29.9966 122.434 29.7154 121.332 28.478C120.726 27.7917 120.472 26.8749 120.585 25.7387C120.54 25.3731 120.591 25.0019 120.738 24.6644C121.213 23.4551 122.587 22.9545 123.729 22.6508C125.194 22.2627 130.635 21.5258 132.575 22.6508C133.553 23.1795 134.203 24.1694 134.299 25.2944C134.413 26.7343 134.113 27.8086 133.383 28.5848C132.275 29.7604 130.408 30.0416 127.784 30.0416L127.779 30.0304ZM128.729 23.9726C126.506 23.9726 123.633 24.3719 122.881 25.1144C122.734 25.2606 122.762 25.3394 122.779 25.4012C122.909 25.7781 123.09 25.8568 123.718 26.0706L123.809 26.1043C126.274 26.9537 130.177 27.0099 131.839 25.7275C132.19 25.4519 132.156 25.2438 132.145 25.1763C132.088 24.8275 131.641 24.4225 131.121 24.2313C131.104 24.2313 131.087 24.2201 131.07 24.2144C130.584 24.0513 129.719 23.9726 128.729 23.9726ZM121.716 26.0368C121.756 26.0368 121.79 26.0368 121.829 26.0481C121.79 25.9693 121.756 25.885 121.722 25.795C121.71 25.8793 121.705 25.9581 121.699 26.0368C121.699 26.0368 121.71 26.0368 121.716 26.0368ZM133.191 25.7556C133.191 25.7556 133.168 25.8062 133.163 25.8343C133.174 25.8343 133.185 25.8343 133.197 25.8343C133.197 25.8118 133.197 25.7837 133.197 25.7612L133.191 25.7556Z" fill="#033A43"/>
<path d="M102.024 50.87C102.227 50.6337 102.035 50.2738 101.724 50.3075C101.221 50.3694 100.717 50.4369 100.242 50.5662C99.2866 50.825 98.3534 51.1625 97.3807 51.3762C95.4296 51.8149 93.4728 52.2143 91.5104 52.5799C87.5799 53.3111 83.6267 53.8961 79.6509 54.3517C79.3851 54.3798 79.1476 54.5317 79.0062 54.7567C77.5584 57.0572 75.9071 59.3577 75.0418 60.5389C74.8099 60.8539 75.0587 61.2926 75.449 61.2701C81.3193 60.882 87.1614 60.117 92.9355 58.9808C93.3258 58.9021 93.6764 58.7165 93.9592 58.4409C95.373 57.0628 96.9113 55.6397 98.4496 54.3292C99.6599 53.2942 100.469 52.6305 102.018 50.87H102.024Z" fill="#DA6A9E"/>
<path d="M78.1185 28.2698C82.8125 27.3024 87.6366 27.0605 92.4041 27.5611C92.9809 27.623 93.5578 27.4711 94.0272 27.128L100.842 22.077C101.142 21.852 101.006 21.3739 100.627 21.3458C95.5485 20.9746 90.453 20.8958 85.3631 21.1096C84.9729 21.1265 84.5996 21.2783 84.3112 21.5371C82.3261 23.3145 80.2393 25.2269 77.7622 27.578C77.4681 27.8536 77.7169 28.3486 78.1185 28.2698Z" fill="#81A046"/>
<path d="M96.7926 58.199C102.561 56.9672 108.262 55.4935 113.878 53.9636C114.347 53.8342 114.777 53.6092 115.15 53.2999C116.92 51.8206 122.434 47.2195 125.386 44.7784C125.703 44.5197 125.437 44.0134 125.047 44.1203C120.285 45.4027 109.201 48.4288 104.778 49.5594C104.394 49.655 104.049 49.8519 103.766 50.1275C101.628 52.1974 99.2867 54.3742 96.3119 57.3047C95.9386 57.6703 96.278 58.3059 96.7926 58.1934V58.199Z" fill="#81A046"/>
<path d="M63.5443 32.6684C66.9375 31.071 70.5061 29.8729 74.1765 29.0967C74.8834 28.9448 75.5394 28.613 76.0541 28.1067C77.926 26.2843 79.8885 24.3775 82.5748 22.0545C82.8915 21.7845 82.6766 21.2614 82.2637 21.2952C76.9759 21.7002 71.7559 22.7295 66.7113 24.3607C66.5925 24.4 66.4964 24.49 66.4399 24.6025C63.6461 30.576 63.4029 31.0541 62.9504 32.1172C62.7921 32.4828 63.1767 32.8427 63.5386 32.674L63.5443 32.6684Z" fill="#82D0C8"/>
<path d="M171.965 43.2597C171.721 43.4116 171.818 43.7884 172.1 43.8053C175.872 44.0472 180.035 44.7952 183.111 47.1183C183.818 47.5964 184.406 48.2263 184.836 48.9575C185.068 49.3513 185.549 49.5256 185.967 49.34C187.494 48.6594 188.778 48.1532 190.311 47.4839C190.831 47.2532 191.063 46.6345 190.803 46.1283C188.795 42.2922 184.508 39.7892 180.278 38.5406C180.029 38.4674 179.763 38.5012 179.543 38.6362C178.723 39.1199 176.353 40.4473 171.97 43.2653L171.965 43.2597Z" fill="#82D0C8"/>
<path d="M59.2858 54.7848C59.5685 54.571 59.4667 54.1267 59.1161 54.0592C58.7315 53.9804 58.3469 53.9017 57.968 53.8117C54.6596 53.0242 50.7008 51.2468 49.5358 48.5526C49.1965 47.7708 48.3764 47.782 47.6469 47.8495C46.725 47.9339 43.1169 47.6751 42.7719 48.7945C42.5796 49.4244 43.3883 50.9993 43.6768 51.5899C44.2084 52.6868 44.921 53.688 45.7467 54.5767C47.6469 56.6184 50.1296 58.064 52.7198 59.0652C53.2684 59.2789 53.8961 59.1833 54.3542 58.8121C57.3855 56.3485 58.2904 55.5272 59.2801 54.7848H59.2858Z" fill="#F3B12E"/>
<path d="M65.3201 25.0075C65.077 24.6813 64.4888 24.9963 63.9119 25.2269C63.1767 25.5137 62.4981 25.9187 61.7798 26.2393C60.513 26.8074 59.2688 27.4262 58.0529 28.1067C55.672 29.4342 53.4098 30.9641 51.306 32.6853C51.0063 32.9328 50.9497 33.3715 51.1703 33.6865C52.5219 35.6382 52.7651 36.0826 54.0545 37.8994C54.309 38.2594 54.8237 38.3156 55.1573 38.0287C56.9331 36.5101 58.8616 35.1714 60.9089 34.0464C61.0446 33.9677 61.1577 33.8552 61.22 33.7146C61.8421 32.3647 62.4981 31.0372 63.1598 29.7042C63.7366 28.5455 64.4944 27.4712 65.4332 25.3788C65.5011 25.2269 65.3823 25.0919 65.3201 25.0132V25.0075Z" fill="#81A046"/>
<path d="M190.859 48.1869C189.27 48.8844 187.732 49.5087 185.945 50.3243C185.515 50.5212 185.181 50.8756 184.955 51.2862C184.514 52.0961 183.807 52.7373 182.942 53.1029C181.884 53.5529 180.764 53.8454 179.628 53.9748C179.215 54.0198 178.825 54.166 178.508 54.4248C176.783 55.8309 173.254 58.6489 171.557 59.982C171.252 60.2182 171.416 60.7019 171.806 60.7132C176.455 60.8257 182.026 60.7638 185.792 58.9695C189.887 57.0065 192.618 52.9005 191.696 48.6032C191.617 48.2319 191.216 48.0238 190.865 48.1757L190.859 48.1869Z" fill="#81A046"/>
<path d="M176.789 54.391C176.517 53.8004 175.646 53.4967 174.272 53.7554C171.801 54.2223 169.753 54.346 167.242 53.9467C167.067 53.9185 166.88 53.9635 166.739 54.0648L160.433 58.5983C159.941 58.9527 160.128 59.7289 160.727 59.8132C163.481 60.2013 166.258 60.4657 169.035 60.6119C169.205 60.6232 169.369 60.5669 169.504 60.4601C171.382 58.9414 171.382 58.8908 173.231 57.299C174.255 56.4215 177.054 54.976 176.789 54.391Z" fill="#81A046"/>
<path d="M77.796 54.5766C72.3894 55.1222 66.9433 55.0829 61.548 54.4585C61.2539 54.4248 60.9598 54.5035 60.7223 54.6779C58.5676 56.2978 57.1085 57.6759 55.491 59.0708C55.1743 59.3464 55.3044 59.8695 55.7116 59.9651C61.0899 61.2082 66.6096 61.72 72.1236 61.4894C72.7457 61.4613 73.3282 61.1744 73.7298 60.702C75.2681 58.8852 76.7158 56.9896 78.0731 55.0322C78.2145 54.8241 78.0505 54.5485 77.796 54.5766Z" fill="#81A046"/>
<path d="M49.2474 46.0777C49.6433 43.7828 51.5717 41.3811 53.3136 39.6712C53.6586 39.328 53.7208 38.7993 53.4663 38.3831C52.3013 36.5101 52.1995 36.4482 50.9723 34.5639C50.616 34.0183 49.8525 33.9227 49.3774 34.367C45.8089 37.7025 42.721 41.8086 42.5909 46.4939C42.574 47.1633 43.1678 47.6808 43.8351 47.557C45.3112 47.2927 46.8042 47.0958 48.3029 46.9664C48.7949 46.927 49.1682 46.5558 49.253 46.0721L49.2474 46.0777Z" fill="#81A046"/>
<path d="M147.822 40.2055C148.823 39.6036 149.501 38.5912 149.665 37.4381C149.891 35.3907 148.41 33.5514 146.351 33.3265C145.622 33.2477 144.881 33.3827 144.225 33.7202C142.353 35.1376 141.991 37.7981 143.416 39.6599C143.733 40.0761 144.123 40.4249 144.564 40.7005C142.856 47.6132 140.758 50.5831 142.545 51.8149C143.823 52.3324 145.214 52.5011 146.583 52.2986C147.844 52.4505 149.122 52.2086 150.236 51.6012C152.725 49.6944 148.789 45.6446 147.816 40.2055H147.822Z" fill="#DA6A9E"/>
<path d="M108.126 16.8966C108.737 16.8741 157.634 17.2847 157.374 17.2566C158.211 17.386 158.601 16.4523 157.73 16.3285C156.169 16.1092 111.548 16.0417 108.154 16.306C107.589 16.3229 107.555 16.9191 108.126 16.8966Z" fill="#033A43"/>
<path d="M157.521 18.1116C157.436 18.1116 157.351 18.106 157.26 18.0947C157.119 18.106 156.978 18.1004 156.836 18.1004L149.959 18.0554C145.503 18.0216 139.548 17.9766 133.525 17.926C121.852 17.836 108.607 17.7291 108.149 17.7404C107.668 17.7573 107.249 17.5491 107.023 17.1948C106.82 16.8685 106.808 16.4523 106.995 16.1092C107.204 15.7211 107.628 15.4792 108.126 15.4624C111.378 15.2093 156.022 15.2374 157.849 15.4905C158.397 15.5692 158.81 15.8617 158.985 16.3005C159.149 16.7111 159.076 17.1723 158.782 17.5379C158.488 17.9035 158.024 18.1116 157.521 18.1116Z" fill="#033A43"/>
<path d="M183.977 16.8966C184.282 16.8741 208.827 17.2847 208.691 17.2566C209.11 17.386 209.307 16.4523 208.872 16.3285C208.092 16.1092 185.69 16.0417 183.988 16.306C183.705 16.3229 183.688 16.9191 183.971 16.8966H183.977Z" fill="#033A43"/>
<path d="M208.77 17.8641C208.708 17.8641 208.646 17.8585 208.584 17.8416C208.357 17.8529 208.063 17.8473 207.667 17.8416L204.97 17.8023C202.736 17.7685 199.744 17.7235 196.724 17.6729C190.927 17.5829 184.378 17.4817 184.011 17.4873C183.734 17.4985 183.479 17.3748 183.326 17.1442C183.14 16.8686 183.123 16.4748 183.281 16.1598C183.411 15.9011 183.654 15.7324 183.926 15.7042C185.77 15.4511 208.12 15.4849 209.042 15.7436C209.37 15.8336 209.602 16.0867 209.692 16.4355C209.794 16.8517 209.664 17.3354 209.37 17.6166C209.206 17.7741 208.991 17.8585 208.776 17.8585L208.77 17.8641ZM183.965 16.3005C183.965 16.3005 183.948 16.3005 183.937 16.3005C183.943 16.3005 183.954 16.3005 183.971 16.3005H183.965Z" fill="#033A43"/>
<path d="M150.581 39.2099C149.908 39.4405 149.535 40.1492 149.727 40.8298L150.005 41.8198C150.316 42.7647 150.836 44.0584 151.096 44.6771C151.181 44.8852 151.396 44.9977 151.622 44.964C157.487 44.0472 163.414 43.6253 169.352 43.704C169.742 43.704 170.115 43.5916 170.432 43.3722C172.27 42.0954 174.594 40.5767 177.552 38.7937C177.948 38.5574 177.841 37.9612 177.388 37.8768C170.59 36.6394 161.587 37.14 154.744 37.9443C154.257 38.0006 153.782 38.1131 153.319 38.2706L150.587 39.2099H150.581Z" fill="#81A046"/>
<path d="M142.375 41.5498C142.291 41.2967 142.115 41.0267 141.833 40.6667C141.589 40.363 141.199 40.2223 140.815 40.3011C136.567 41.1954 132.354 42.2247 128.163 43.3272C128.101 43.3441 128.039 43.3778 127.988 43.4172C123.062 47.7201 122.508 48.1982 117.944 52.0792C117.61 52.3661 117.893 52.9061 118.317 52.788C123.277 51.4324 132.213 48.8956 140.639 47.062C140.786 47.0282 140.905 46.9157 140.95 46.7695C141.301 45.6108 141.77 44.4915 142.127 43.3328C142.398 42.4497 142.545 42.0279 142.381 41.5441L142.375 41.5498Z" fill="#81A046"/>
<path d="M207.758 22.8138C202.905 33.1239 189.745 65.6461 186.442 72.9863C186.018 73.0088 4.72787 73.2057 2.313 73.1213C31.8513 40.5711 53.4381 22.8138 59.3932 16.8741C59.4554 16.891 59.5233 16.8966 59.5855 16.8966C71.4619 16.3454 83.3609 16.621 95.2373 16.1373C95.3957 16.1373 95.5258 16.0135 95.5258 15.8561C95.5258 15.6986 95.4013 15.5692 95.243 15.5692C83.3666 15.3386 71.445 15.2936 59.5912 15.7548C59.2745 15.7604 59.0256 16.0248 59.0369 16.3342C59.0369 16.351 59.0369 16.3623 59.0369 16.3792C53.5455 20.5527 40.4362 32.809 35.7931 37.2244C22.9044 49.5594 11.718 61.1238 1.01225 72.9638C0.797348 73.1832 0.797348 73.5319 1.01225 73.74C1.13102 73.8582 1.29503 73.9144 1.45903 73.8975C3.74383 74.2631 184.503 74.19 186.194 74.0607C186.499 74.0438 187.161 74.2463 187.189 73.5882C189.875 67.9466 207 26.1887 208.419 23.1963C208.634 22.7463 207.973 22.3526 207.758 22.8138Z" fill="#033A43"/>
<path d="M99.7673 75C53.2175 75 4.63735 74.9381 1.46466 74.7412C1.08009 74.7581 0.701175 74.6175 0.418404 74.3419C-0.130173 73.8019 -0.135828 72.9188 0.401437 72.3676C11.4917 60.1057 22.8818 48.4007 35.1993 36.6113C40.8886 31.2003 52.8895 20.0521 58.2395 15.9179C58.4092 15.3442 58.9351 14.9224 59.5629 14.9055C69.901 14.5061 81.2401 14.4499 95.2543 14.7199C95.5483 14.7199 95.8311 14.838 96.046 15.0517C96.2609 15.2655 96.374 15.5467 96.374 15.8504C96.374 16.1542 96.2553 16.4354 96.0404 16.6491C95.8255 16.8629 95.5427 16.9754 95.243 16.9754H95.2373C89.5649 17.2116 83.7624 17.2679 78.1466 17.3241C72.1066 17.386 65.863 17.4479 59.7325 17.7291C58.313 19.1184 56.1809 21.0533 53.291 23.6688C43.7729 32.2859 26.2015 48.1926 4.21885 72.2889C23.0514 72.3395 175.674 72.1707 185.894 72.1426C187.291 68.9872 190.028 62.4119 193.172 54.8579C198.279 42.5847 204.07 28.6692 206.994 22.4539C207.175 22.0601 207.531 21.8014 207.95 21.762C208.385 21.717 208.821 21.9251 209.087 22.302C209.347 22.6732 209.386 23.1401 209.189 23.5507C208.6 24.7881 205.247 32.8483 201.367 42.1854C195.887 55.3585 189.689 70.264 188.02 73.8132C187.958 74.1956 187.771 74.4375 187.619 74.5781C187.189 74.9606 186.64 74.9269 186.346 74.9044C186.307 74.9044 186.284 74.8931 186.233 74.8987C185.645 74.9437 143.608 74.9944 99.7673 74.9944V75ZM95.2147 16.4073C95.2147 16.4073 95.226 16.4073 95.2316 16.4073C95.226 16.4073 95.2203 16.4073 95.2147 16.4073ZM95.1977 15.2936C95.1977 15.2936 95.1807 15.2936 95.1694 15.2936C95.1807 15.2936 95.1921 15.2936 95.2034 15.2936H95.1977Z" fill="#033A43"/>
<path d="M227.263 52.9061C227.184 51.978 226.641 51.1455 225.816 50.7012C224.175 49.7562 219.097 50.3075 217.4 50.7631C216.467 50.9262 215.613 51.393 214.98 52.0961C215.393 52.068 215.8 52.068 216.213 52.0961C218.939 51.0274 221.913 50.7406 224.798 51.2693C225.883 51.6349 226.924 52.8386 225.731 53.761C224.3 54.6329 222.62 55.021 220.952 54.8635C221.082 55.1335 221.184 55.4203 221.252 55.7072C222.954 55.7072 225.714 55.4316 226.777 54.0142C226.624 55.0603 225.799 55.8816 224.747 56.0334C223.655 56.2978 222.535 56.4384 221.41 56.4553C221.433 56.669 221.433 56.8771 221.433 57.0684C225.035 57.0684 227.608 56.4159 227.269 52.8948L227.263 52.9061Z" fill="#033A43"/>
<path d="M221.461 57.6421C221.144 57.6421 220.861 57.4003 220.861 57.0797C220.861 56.9053 220.861 56.7141 220.844 56.5228C220.833 56.3991 220.861 56.2809 220.924 56.1797C220.81 56.101 220.731 55.9828 220.697 55.8478C220.641 55.6004 220.556 55.3529 220.443 55.1223C220.352 54.9366 220.375 54.7229 220.488 54.5598C220.607 54.391 220.805 54.301 221.003 54.3235C222.53 54.4698 224.091 54.1098 225.403 53.3223C225.731 53.058 225.697 52.8555 225.685 52.788C225.629 52.4393 225.176 52.023 224.651 51.8374C221.885 51.3368 219.04 51.6124 216.422 52.6418C216.343 52.6755 216.258 52.6868 216.173 52.6811C215.794 52.653 215.404 52.653 215.025 52.6811C214.799 52.698 214.578 52.5743 214.476 52.3661C214.375 52.158 214.409 51.9105 214.561 51.7418C215.279 50.9487 216.252 50.4144 217.31 50.2344C218.712 49.8519 224.142 49.1038 226.104 50.2344C227.082 50.7631 227.733 51.7531 227.829 52.8724C227.965 54.2673 227.671 55.3697 226.958 56.146C225.742 57.4734 223.502 57.659 221.461 57.659V57.6421ZM226.726 53.3842C226.726 53.3842 226.703 53.4405 226.692 53.4686C226.703 53.4686 226.715 53.4686 226.726 53.4686C226.726 53.4405 226.726 53.418 226.726 53.3898V53.3842Z" fill="#033A43"/>
<path d="M79.2609 38.6193C82.3997 39.8512 82.558 40.0424 83.2367 39.823C83.3385 39.7893 88.5245 36.5832 88.615 36.5157C89.2371 36.122 89.8762 35.627 90.5265 35.177C90.5831 35.1376 90.5774 35.0589 90.5209 35.0252C89.5029 34.4514 88.417 33.9958 87.286 33.6808C84.1246 32.494 84.1189 32.3365 81.229 33.4277C79.0686 34.2658 76.9818 35.2783 74.9854 36.4482C74.8044 36.5551 74.6404 36.8026 74.7988 36.9207C74.9571 37.0388 75.3134 37.0894 75.5114 37.1513C75.7659 37.2413 76.026 37.3257 76.2805 37.4213C77.2872 37.7813 78.2825 38.1806 79.2666 38.6081L79.2609 38.6193ZM85.5384 35.0477C85.8608 35.0645 86.1096 35.3401 86.0927 35.6607C86.0757 35.9589 85.8382 36.1951 85.5384 36.212C85.2161 36.1951 84.9672 35.9251 84.9842 35.6045C85.0012 35.3064 85.233 35.0701 85.5328 35.0533H85.5441L85.5384 35.0477ZM79.5833 35.7001C79.9339 35.7114 80.211 35.987 80.2223 36.3357C80.2223 36.6844 79.9339 36.9657 79.5833 36.9713C79.2326 36.9601 78.9555 36.6844 78.9442 36.3357C78.9612 35.9982 79.2326 35.7226 79.572 35.7001H79.5833Z" fill="#82D0C8"/>
<path d="M82.7219 49.3119C82.3882 46.5446 82.3034 43.7491 82.4787 40.9648C82.4844 40.8298 82.4052 40.7117 82.2751 40.6667C81.178 40.3124 80.1034 39.8961 79.0515 39.4293C77.7225 38.9062 76.3199 38.445 75.0249 37.8431C74.9231 37.7981 74.8156 37.8712 74.8213 37.9837C74.957 39.823 75.2115 41.6454 75.4434 43.4678C76.0768 48.4626 75.5961 47.9282 78.7801 49.3625C81.308 50.5044 82.1959 50.9206 82.6936 51.0949C82.7898 51.1287 82.8859 51.0443 82.8746 50.9431C82.8067 50.3919 82.7784 49.8519 82.7275 49.3119H82.7219ZM78.7292 44.6659C78.3672 44.6659 78.0731 44.3678 78.0731 44.0078C78.0731 43.6478 78.3672 43.3553 78.7292 43.3553C79.0911 43.3553 79.3852 43.6534 79.3852 44.0134C79.3852 44.3734 79.0911 44.6659 78.7292 44.6659Z" fill="#82D0C8"/>
<path d="M92.7207 42.4385C92.6416 42.0785 92.5624 41.7129 92.5002 41.3529C92.4436 41.0267 92.3871 40.6948 92.3362 40.3686C92.2513 39.8511 92.1665 39.3336 92.076 38.8105C91.9742 38.2031 91.8837 37.5956 91.7593 36.9881C91.6914 36.6619 91.5953 36.3413 91.4483 36.0375C91.3465 35.8294 91.3521 35.7901 91.1768 35.8519C91.0015 35.9138 90.8092 36.0882 90.6508 36.1894C88.8298 37.3537 86.9974 38.5012 85.1538 39.6317C84.9389 39.7667 84.7126 39.8849 84.4921 40.003C84.1132 40.2055 83.7399 40.4361 83.344 40.6104C83.2083 40.6723 83.1178 40.8017 83.1291 40.9479C83.2366 42.6803 83.2196 44.4465 83.3271 46.1845C83.5137 49.3456 83.7343 50.15 83.7851 50.9543C83.7908 51.0443 83.8813 51.1005 83.9605 51.0724C84.8314 50.7631 85.6684 50.3581 86.4489 49.8631C88.4283 48.8507 90.4925 47.9113 92.3757 46.7808C93.1392 46.3139 93.258 45.4477 93.1562 44.6321C93.0657 43.8953 92.8904 43.1697 92.7264 42.4385H92.7207ZM85.6684 42.9278C85.3008 42.911 85.0124 42.596 85.035 42.2247C85.052 41.8816 85.3291 41.6116 85.6684 41.5948C86.036 41.6116 86.3244 41.9266 86.3018 42.2922C86.2849 42.6353 86.0134 42.9053 85.6684 42.9222V42.9278ZM88.564 44.6209C88.2247 44.6209 87.9475 44.3453 87.9475 44.0078C87.9475 43.6703 88.2247 43.3947 88.564 43.3947C88.9033 43.3947 89.1804 43.6647 89.1804 44.0078C89.1804 44.3453 88.909 44.6209 88.564 44.6209ZM91.5387 46.162C91.1994 46.1508 90.9336 45.8864 90.9223 45.549C90.9223 45.2115 91.1994 44.9359 91.5387 44.9359C91.8781 44.9415 92.1439 45.2115 92.1552 45.549C92.1552 45.8864 91.8837 46.1564 91.5444 46.162H91.5387Z" fill="#82D0C8"/>
<path d="M171.077 19.709C171.077 19.709 171.048 19.754 171.031 19.7878C170.873 20.1478 170.924 20.5246 170.901 20.9071C170.811 22.3583 170.788 23.4382 170.641 24.6982C170.443 26.5768 170.189 28.4498 169.883 30.3172C169.866 30.4185 169.963 30.5029 170.064 30.4691C170.817 30.2216 171.552 29.9066 172.247 29.5242C177.631 27.173 176.834 27.6061 177.326 23.6913C177.614 21.4021 177.954 19.1241 178.106 16.8123C178.106 16.7673 178.067 16.7392 178.027 16.756C175.901 17.8416 173.61 18.7978 171.348 19.574C171.201 19.6247 171.133 19.6303 171.077 19.7034V19.709ZM174.289 24.2707C173.933 24.2426 173.667 23.9332 173.69 23.5788C173.712 23.2638 173.967 23.0107 174.289 22.9826C174.645 23.0389 174.888 23.3651 174.832 23.7194C174.787 24.0007 174.572 24.2144 174.289 24.2594V24.2707Z" fill="#82D0C8"/>
<path d="M170.115 19.7371C170.036 19.6021 169.878 19.5571 169.725 19.4953C169.159 19.2646 168.566 19.0959 168 18.8709C167.242 18.5672 166.496 18.2522 165.749 17.9147C164.279 17.2566 162.842 16.5367 161.434 15.7604C161.361 15.7211 161.264 15.7604 161.236 15.8392C161.1 16.2948 161.004 16.9979 159.907 23.2469C159.783 23.9669 159.415 24.9569 159.845 25.6543C160.207 26.2449 161.083 26.5318 161.672 26.8355C166.954 29.5748 167.972 30.1203 168.447 30.3285C168.577 30.3847 168.73 30.3003 168.758 30.1597C169.097 28.4386 169.335 26.7005 169.555 24.9625C169.668 24.0738 169.742 23.1794 169.838 22.2851C169.895 21.7226 170.03 21.1714 170.098 20.6089C170.127 20.3952 170.228 19.9846 170.143 19.7765C170.138 19.7596 170.132 19.7484 170.121 19.7371H170.115ZM162.39 24.9175C162.017 24.9175 161.711 24.6137 161.711 24.2425C161.711 23.8713 162.017 23.5676 162.39 23.5676C162.763 23.5676 163.069 23.8713 163.069 24.2425C163.069 24.6137 162.763 24.9175 162.39 24.9175ZM163.408 20.0352C163.04 20.0184 162.752 19.7034 162.774 19.3321C162.791 18.989 163.069 18.719 163.408 18.7022C163.775 18.719 164.064 19.034 164.041 19.4053C164.024 19.7484 163.747 20.0184 163.408 20.0352ZM166.598 26.6274C166.241 26.5993 165.975 26.2899 165.998 25.9356C166.021 25.6206 166.275 25.3675 166.598 25.3393C166.954 25.3675 167.22 25.6768 167.197 26.0312C167.174 26.3462 166.92 26.5993 166.598 26.6274ZM167.593 21.3908C167.237 21.3627 166.971 21.0533 166.993 20.6989C167.016 20.384 167.271 20.1308 167.593 20.1027C167.949 20.1308 168.215 20.4402 168.192 20.7946C168.17 21.1095 167.915 21.3627 167.593 21.3908Z" fill="#82D0C8"/>
<path d="M170.189 18.7078C171.507 18.764 172.626 18.1228 173.797 17.6391C175.075 17.1047 176.331 16.5141 177.552 15.8673C177.648 15.8167 177.648 15.6761 177.558 15.6254C175.126 14.1855 172.536 13.0268 169.844 12.1606C169.001 11.9919 168.125 12.0875 167.339 12.4362C166.304 12.785 165.297 13.1506 164.279 13.578C163.402 13.8143 162.588 14.2305 161.892 14.7986C161.774 14.8942 161.802 15.0798 161.943 15.1417C164.013 16.0529 168.713 18.3816 170.189 18.7134V18.7078ZM172.655 14.5849C172.971 14.5849 173.231 14.838 173.231 15.1586C173.231 15.4792 172.977 15.7323 172.655 15.7323C172.338 15.7323 172.078 15.4792 172.078 15.1586C172.078 14.838 172.332 14.5849 172.655 14.5849ZM166.598 14.1855C166.954 14.2136 167.22 14.523 167.197 14.8774C167.175 15.1923 166.92 15.4455 166.598 15.4736C166.241 15.4455 165.976 15.1361 165.998 14.7817C166.021 14.4668 166.275 14.2136 166.598 14.1855Z" fill="#82D0C8"/>
</g>
<defs>
<clipPath id="clip0_589_8254">
<rect width="235" height="75" fill="white"/>
</clipPath>
</defs>
</svg>
