<svg width="537" height="213" viewBox="0 0 537 213" fill="none" xmlns="http://www.w3.org/2000/svg">
<path fill-rule="evenodd" clip-rule="evenodd" d="M521.097 16.2481C518.653 13.5172 515.1 11.7982 511.146 11.7982L13.3481 11.7982C9.79446 11.7982 6.56573 13.1876 4.17383 15.4519L15.4223 4.20393C17.8569 1.61605 21.3128 2.08685e-05 25.1462 0H522.945C527.087 0 530.788 1.88637 533.236 4.84647L521.097 16.2481Z" fill="#9CB2FF"/>
<path d="M533.236 4.84668C535.145 7.15568 536.293 10.118 536.293 13.3485V186.854C536.293 190.54 534.799 193.877 532.384 196.293L520.586 208.091C523.001 205.675 524.495 202.338 524.495 198.652V25.1467C524.495 21.7282 523.21 18.6098 521.096 16.2483L533.236 4.84668Z" fill="#102775"/>
<path d="M0 25.1467C0 17.7747 5.97625 11.7984 13.3483 11.7984L511.147 11.7979C518.519 11.7979 524.495 17.7741 524.495 25.1461V198.651C524.495 206.024 518.519 212 511.147 212L13.3483 212C5.97625 212 0 206.024 0 198.652V25.1467Z" fill="#102775"/>
<path d="M0 25.3489C0 17.9768 5.97625 12.0006 13.3483 12.0006L511.147 12C518.519 12 524.495 17.9762 524.495 25.3483V198.854C524.495 206.226 518.519 212.202 511.147 212.202L13.3483 212.202C5.97625 212.202 0 206.226 0 198.854V25.3489Z" fill="white"/>
<path d="M13.3486 13.3906H511.146C517.751 13.3906 523.105 18.7446 523.105 25.3486V198.854C523.105 205.458 517.751 210.812 511.146 210.812H13.3486C6.74464 210.812 1.39082 205.459 1.39062 198.854V25.3486C1.39076 18.7446 6.7446 13.3906 13.3486 13.3906Z" stroke="#102775" stroke-width="2.78089"/>
<path d="M32.8334 90.1627C43.2643 90.1627 45.383 93.9445 45.383 103.129V117.716C45.383 126.9 43.2643 130.682 32.8334 130.682H26.2054C24.6299 130.682 24.1953 130.25 24.1953 128.683V92.1617C24.1953 90.5949 24.6299 90.1627 26.2054 90.1627H32.8334ZM32.6704 97.7263C31.9098 97.7263 31.6925 97.9424 31.6925 98.6988V122.146C31.6925 122.848 31.9098 123.118 32.6704 123.118H33.268C36.3103 123.118 37.6685 121.714 37.6685 118.202V102.643C37.6685 99.131 36.3103 97.7263 33.268 97.7263H32.6704Z" fill="#FF6752"/>
<path d="M49.7471 130.682H47.1937C45.6182 130.682 45.1836 130.25 45.1836 128.683V125.117C45.1836 123.551 45.6182 123.118 47.1937 123.118H49.8558C51.7572 123.118 52.6265 122.254 52.6265 120.093V98.4287C52.6265 97.6723 52.4091 97.4562 51.6486 97.4562H48.9865C47.411 97.4562 46.9764 97.024 46.9764 95.4572V92.1617C46.9764 90.5949 47.411 90.1627 48.9865 90.1627H58.1135C59.689 90.1627 60.1237 90.5949 60.1237 92.1617V118.796C60.1237 127.494 57.5159 130.682 49.7471 130.682Z" fill="#FF6752"/>
<path d="M69.548 128.683C69.548 130.25 69.1134 130.682 67.5379 130.682H64.0609C62.4854 130.682 62.0508 130.25 62.0508 128.683V114.852C62.0508 112.475 62.1594 111.503 62.8114 109.342L67.7552 92.864C68.4071 90.5949 68.9504 90.1627 71.7754 90.1627H73.7312C76.5562 90.1627 77.0995 90.5949 77.7514 92.864L82.6952 109.342C83.3472 111.449 83.4558 112.475 83.4558 114.852V128.683C83.4558 130.25 83.0212 130.682 81.4457 130.682H77.9687C76.3932 130.682 75.9586 130.25 75.9586 128.683V121.552C75.9586 120.795 75.7413 120.579 74.9807 120.579H70.5259C69.7653 120.579 69.548 120.795 69.548 121.552V128.683ZM75.1437 113.016C75.7413 113.016 76.0673 112.799 76.0673 112.313C76.0673 112.043 76.0129 111.773 75.9586 111.503L73.4596 101.076C73.3509 100.536 73.2422 100.428 72.7533 100.428C72.2643 100.428 72.1557 100.536 72.047 101.076L69.548 111.503C69.4936 111.773 69.4393 112.043 69.4393 112.313C69.4393 112.799 69.7653 113.016 70.3629 113.016H75.1437Z" fill="#FF6752"/>
<path d="M99.3526 103.507C99.6243 103.993 99.7329 104.101 100.059 104.101C100.385 104.101 100.494 103.939 100.494 103.561V92.1617C100.494 90.5949 100.928 90.1627 102.504 90.1627H105.818C107.393 90.1627 107.828 90.5949 107.828 92.1617V128.683C107.828 130.25 107.393 130.682 105.818 130.682H102.504C100.928 130.682 100.494 130.25 100.494 128.683V121.282C100.494 118.742 100.113 117.824 99.1897 116.095L94.1372 106.749C93.8656 106.262 93.7569 106.154 93.4309 106.154C93.105 106.154 92.9963 106.316 92.9963 106.695V128.683C92.9963 130.25 92.5617 130.682 90.9862 130.682H87.6722C86.0967 130.682 85.6621 130.25 85.6621 128.683V92.1617C85.6621 90.5949 86.0967 90.1627 87.6722 90.1627H89.791C91.8011 90.1627 92.5617 90.4869 93.7026 92.7019L99.3526 103.507Z" fill="#FF6752"/>
<path d="M124.833 116.257C124.833 115.501 124.616 115.285 123.855 115.285H123.203C121.628 115.285 121.193 114.853 121.193 113.286V109.72C121.193 108.154 121.628 107.721 123.203 107.721H130.103C131.678 107.721 132.113 108.154 132.113 109.72V119.337C132.113 128.035 129.505 131.223 121.628 131.223C113.75 131.223 111.143 128.035 111.143 119.337V101.508C111.143 92.8103 113.75 89.6228 121.628 89.6228C129.505 89.6228 132.004 92.8103 132.004 101.508V101.779C132.004 103.345 131.57 103.778 129.994 103.778H126.517C124.942 103.778 124.507 103.345 124.507 101.779V100.212C124.507 98.0508 123.584 97.1864 121.682 97.1864C119.781 97.1864 118.857 98.0508 118.857 100.212V120.634C118.857 122.795 119.835 123.659 121.845 123.659C123.91 123.659 124.833 122.795 124.833 120.634V116.257Z" fill="#FF6752"/>
<path d="M155.644 118.797C155.644 127.927 153.037 131.223 145.159 131.223C137.282 131.223 134.674 127.927 134.674 118.797V102.049C134.674 92.9724 137.282 89.6228 145.159 89.6228C153.037 89.6228 155.644 92.9724 155.644 102.049V118.797ZM142.388 120.634C142.388 122.795 143.258 123.659 145.159 123.659C147.06 123.659 147.93 122.795 147.93 120.634V100.482C147.93 98.1048 147.06 97.1864 145.159 97.1864C143.258 97.1864 142.388 98.1048 142.388 100.482V120.634Z" fill="#FF6752"/>
<path d="M179.012 117.716V119.337C179.012 128.035 176.513 131.223 168.636 131.223C160.758 131.223 158.15 128.035 158.15 119.337V101.508C158.15 92.8103 160.758 89.6228 168.636 89.6228C176.513 89.6228 179.012 92.8103 179.012 101.508V103.129C179.012 104.696 178.578 105.128 177.002 105.128H173.525C171.95 105.128 171.515 104.696 171.515 103.129V100.212C171.515 98.0508 170.591 97.1864 168.69 97.1864C166.788 97.1864 165.865 98.0508 165.865 100.212V120.634C165.865 122.795 166.788 123.659 168.69 123.659C170.591 123.659 171.515 122.795 171.515 120.634V117.716C171.515 116.149 171.95 115.717 173.525 115.717H177.002C178.578 115.717 179.012 116.149 179.012 117.716Z" fill="#FF6752"/>
<path d="M202.642 118.797C202.642 127.927 200.035 131.223 192.157 131.223C184.28 131.223 181.672 127.927 181.672 118.797V102.049C181.672 92.9724 184.28 89.6228 192.157 89.6228C200.035 89.6228 202.642 92.9724 202.642 102.049V118.797ZM189.386 120.634C189.386 122.795 190.256 123.659 192.157 123.659C194.059 123.659 194.928 122.795 194.928 120.634V100.482C194.928 98.1048 194.059 97.1864 192.157 97.1864C190.256 97.1864 189.386 98.1048 189.386 100.482V120.634Z" fill="#FF6752"/>
<path d="M218.452 103.507C218.724 103.993 218.833 104.101 219.159 104.101C219.484 104.101 219.593 103.939 219.593 103.561V92.1617C219.593 90.5949 220.028 90.1627 221.603 90.1627H224.917C226.493 90.1627 226.927 90.5949 226.927 92.1617V128.683C226.927 130.25 226.493 130.682 224.917 130.682H221.603C220.028 130.682 219.593 130.25 219.593 128.683V121.282C219.593 118.742 219.213 117.824 218.289 116.095L213.237 106.749C212.965 106.262 212.857 106.154 212.531 106.154C212.205 106.154 212.096 106.316 212.096 106.695V128.683C212.096 130.25 211.661 130.682 210.086 130.682H206.772C205.196 130.682 204.762 130.25 204.762 128.683V92.1617C204.762 90.5949 205.196 90.1627 206.772 90.1627H208.891C210.901 90.1627 211.661 90.4869 212.802 92.7019L218.452 103.507Z" fill="#FF6752"/>
<path d="M271.292 104.588L278.246 110.855C281.886 114.096 282.701 116.041 282.701 119.661V120.634C282.701 127.441 280.093 131.223 272.216 131.223C264.338 131.223 261.73 128.035 261.73 119.337V118.256C261.73 116.69 262.165 116.257 263.741 116.257H267.435C269.01 116.257 269.445 116.69 269.445 118.256V120.634C269.445 122.795 270.314 123.659 272.216 123.659C274.117 123.659 274.986 122.849 274.986 120.904V119.877C274.986 118.364 274.66 117.608 272.65 115.825L266.131 110.045C262.491 106.857 261.73 105.02 261.73 101.4V100.212C261.73 93.4046 264.338 89.6228 272.216 89.6228C280.093 89.6228 282.701 92.8103 282.701 101.508V102.589C282.701 104.156 282.266 104.588 280.691 104.588H276.996C275.421 104.588 274.986 104.156 274.986 102.589V100.212C274.986 98.0508 274.117 97.1864 272.216 97.1864C270.314 97.1864 269.445 97.9968 269.445 99.9417V100.86C269.445 102.427 269.771 103.183 271.292 104.588Z" fill="#FF6752"/>
<path d="M252.065 92.1617C252.065 90.5949 252.5 90.1627 254.075 90.1627H257.552C259.128 90.1627 259.562 90.5949 259.562 92.1617V119.337C259.562 128.035 256.954 131.222 249.077 131.222C241.2 131.222 238.592 128.035 238.592 119.337V92.1617C238.592 90.5949 239.026 90.1627 240.602 90.1627H244.079C245.654 90.1627 246.089 90.5949 246.089 92.1617V120.633C246.089 122.794 247.013 123.659 249.077 123.659C251.087 123.659 252.065 122.794 252.065 120.633V92.1617Z" fill="#FF6752"/>
<path d="M153.875 166.339V167.96C153.875 176.658 151.376 179.846 143.499 179.846C135.621 179.846 133.014 176.658 133.014 167.96V150.131C133.014 141.433 135.621 138.246 143.499 138.246C151.376 138.246 153.875 141.433 153.875 150.131V151.752C153.875 153.319 153.441 153.751 151.865 153.751H148.388C146.813 153.751 146.378 153.319 146.378 151.752V148.835C146.378 146.674 145.455 145.809 143.553 145.809C141.652 145.809 140.728 146.674 140.728 148.835V169.256C140.728 171.417 141.652 172.282 143.553 172.282C145.455 172.282 146.378 171.417 146.378 169.256V166.339C146.378 164.772 146.813 164.34 148.388 164.34H151.865C153.441 164.34 153.875 164.772 153.875 166.339Z" fill="#FF6752"/>
<path d="M170.32 177.46V162.873C170.32 162.117 170.103 161.901 169.342 161.901H164.887C164.127 161.901 163.909 162.117 163.909 162.873V177.46C163.909 179.027 163.475 179.459 161.899 179.459H158.422C156.847 179.459 156.412 179.027 156.412 177.46V140.939C156.412 139.372 156.847 138.94 158.422 138.94H161.899C163.475 138.94 163.909 139.372 163.909 140.939V153.365C163.909 154.067 164.127 154.337 164.887 154.337H169.342C170.103 154.337 170.32 154.067 170.32 153.365V140.939C170.32 139.372 170.755 138.94 172.33 138.94H175.807C177.383 138.94 177.817 139.372 177.817 140.939V177.46C177.817 179.027 177.383 179.459 175.807 179.459H172.33C170.755 179.459 170.32 179.027 170.32 177.46Z" fill="#FF6752"/>
<path d="M189.191 140.939V177.46C189.191 179.027 188.756 179.459 187.18 179.459H183.703C182.128 179.459 181.693 179.027 181.693 177.46V140.939C181.693 139.372 182.128 138.94 183.703 138.94H187.18C188.756 138.94 189.191 139.372 189.191 140.939Z" fill="#FF6752"/>
<path d="M213.182 166.493V168.114C213.182 176.812 210.683 180 202.806 180C194.928 180 192.32 176.812 192.32 168.114V150.286C192.32 141.588 194.928 138.4 202.806 138.4C210.683 138.4 213.182 141.588 213.182 150.286V151.907C213.182 153.473 212.747 153.906 211.172 153.906H207.695C206.12 153.906 205.685 153.473 205.685 151.907V148.989C205.685 146.828 204.761 145.964 202.86 145.964C200.958 145.964 200.035 146.828 200.035 148.989V169.411C200.035 171.572 200.958 172.436 202.86 172.436C204.761 172.436 205.685 171.572 205.685 169.411V166.493C205.685 164.927 206.12 164.495 207.695 164.495H211.172C212.747 164.495 213.182 164.927 213.182 166.493Z" fill="#FF6752"/>
<path d="M222.454 177.306C222.454 178.873 222.02 179.305 220.444 179.305H216.967C215.392 179.305 214.957 178.873 214.957 177.306V163.475C214.957 161.098 215.066 160.126 215.718 157.965L220.661 141.487C221.313 139.218 221.857 138.786 224.682 138.786H226.637C229.462 138.786 230.006 139.218 230.658 141.487L235.601 157.965C236.253 160.072 236.362 161.098 236.362 163.475V177.306C236.362 178.873 235.927 179.305 234.352 179.305H230.875C229.299 179.305 228.865 178.873 228.865 177.306V170.175C228.865 169.418 228.648 169.202 227.887 169.202H223.432C222.672 169.202 222.454 169.418 222.454 170.175V177.306ZM228.05 161.639C228.648 161.639 228.974 161.422 228.974 160.936C228.974 160.666 228.919 160.396 228.865 160.126L226.366 149.699C226.257 149.159 226.148 149.051 225.66 149.051C225.171 149.051 225.062 149.159 224.953 149.699L222.454 160.126C222.4 160.396 222.346 160.666 222.346 160.936C222.346 161.422 222.672 161.639 223.269 161.639H228.05Z" fill="#FF6752"/>
<path d="M252.189 164.88C252.189 164.124 251.971 163.908 251.211 163.908H250.559C248.983 163.908 248.549 163.476 248.549 161.909V158.343C248.549 156.777 248.983 156.344 250.559 156.344H257.458C259.034 156.344 259.468 156.777 259.468 158.343V167.96C259.468 176.658 256.861 179.846 248.983 179.846C241.106 179.846 238.498 176.658 238.498 167.96V150.131C238.498 141.433 241.106 138.246 248.983 138.246C256.861 138.246 259.36 141.433 259.36 150.131V150.402C259.36 151.968 258.925 152.4 257.35 152.4H253.873C252.297 152.4 251.863 151.968 251.863 150.402V148.835C251.863 146.674 250.939 145.809 249.038 145.809C247.136 145.809 246.213 146.674 246.213 148.835V169.256C246.213 171.417 247.19 172.282 249.201 172.282C251.265 172.282 252.189 171.417 252.189 169.256V164.88Z" fill="#FF6752"/>
<path d="M283 167.42C283 176.55 280.392 179.846 272.514 179.846C264.637 179.846 262.029 176.55 262.029 167.42V150.672C262.029 141.595 264.637 138.246 272.514 138.246C280.392 138.246 283 141.595 283 150.672V167.42ZM269.744 169.256C269.744 171.417 270.613 172.282 272.514 172.282C274.416 172.282 275.285 171.417 275.285 169.256V149.105C275.285 146.728 274.416 145.809 272.514 145.809C270.613 145.809 269.744 146.728 269.744 149.105V169.256Z" fill="#FF6752"/>
<path d="M99.4723 57.4237C99.4723 57.5858 99.5266 57.6398 99.6353 57.6398C99.744 57.6398 99.8526 57.5858 100.016 57.4777C101.048 56.7754 102.189 56.3432 104.47 56.3432C109.632 56.3432 112.728 59.2606 112.728 66.9322V71.5244C112.728 79.3581 109.849 82.5997 102.243 82.5997C94.3655 82.5997 91.7578 79.3041 91.7578 70.1737V53.4258C91.7578 44.2954 94.3655 40.9999 102.134 40.9999C109.632 40.9999 112.511 44.2414 112.511 52.0751V52.2912C112.511 53.858 112.076 54.2902 110.501 54.2902H107.132C105.557 54.2902 105.122 53.858 105.122 52.2912V51.0487C105.122 49.2658 104.199 48.5635 102.297 48.5635C100.342 48.5635 99.4723 49.4279 99.4723 51.5889V57.4237ZM105.014 72.0106V66.9322C105.014 64.7712 104.144 63.9068 102.243 63.9068C100.342 63.9068 99.4723 64.7712 99.4723 66.9322V72.0106C99.4723 74.1716 100.342 75.0361 102.243 75.0361C104.144 75.0361 105.014 74.1716 105.014 72.0106Z" fill="#FF6752"/>
<path d="M66.781 70.1737C66.781 79.3041 64.1732 82.5997 56.2958 82.5997C48.4183 82.5997 45.8105 79.3041 45.8105 70.1737V53.4258C45.8105 44.3495 48.4183 40.9999 56.2958 40.9999C64.1732 40.9999 66.781 44.3495 66.781 53.4258V70.1737ZM59.0665 51.5889C59.0665 49.4279 58.1972 48.5635 56.2958 48.5635C54.3943 48.5635 53.5251 49.4279 53.5251 51.5889V72.0106C53.5251 74.1716 54.3943 75.0361 56.2958 75.0361C58.1972 75.0361 59.0665 74.1716 59.0665 72.0106V51.5889Z" fill="#FF6752"/>
<path d="M32.5073 73.5233C32.0727 74.2257 32.2357 74.7659 33.1592 74.7659H41.6343C43.2098 74.7659 43.6444 75.1981 43.6444 76.7649V80.0604C43.6444 81.6272 43.2098 82.0594 41.6343 82.0594H25.4447C23.8692 82.0594 23.4346 81.6272 23.4346 80.0604V76.1706C23.4346 74.7119 23.5433 74.0096 24.1409 73.0911L33.6482 58.6122C35.115 56.3972 35.9299 53.6959 35.9299 51.751C35.9299 49.3739 35.1694 48.5635 33.1592 48.5635C31.2578 48.5635 30.3885 49.4279 30.3885 51.5889V54.5063C30.3885 56.073 29.9539 56.5052 28.3784 56.5052H25.0101C23.4346 56.5052 23 56.073 23 54.5063V52.8855C23 44.4575 25.6077 40.9999 33.1592 40.9999C40.8194 40.9999 43.6444 44.5115 43.6444 51.5349C43.6444 54.5603 42.5579 57.8559 40.2761 61.3676L32.5073 73.5233Z" fill="#FF6752"/>
<path d="M78.4507 73.5231C78.016 74.2254 78.179 74.7657 79.1026 74.7657H87.5777C89.1532 74.7657 89.5878 75.1979 89.5878 76.7646V80.0602C89.5878 81.6269 89.1532 82.0591 87.5777 82.0591H71.3881C69.8126 82.0591 69.378 81.6269 69.378 80.0602V76.1704C69.378 74.7117 69.4866 74.0093 70.0842 73.0909L79.5915 58.612C81.0584 56.397 81.8733 53.6957 81.8733 51.7507C81.8733 49.3736 81.1127 48.5632 79.1026 48.5632C77.2011 48.5632 76.3319 49.4276 76.3319 51.5887V54.5061C76.3319 56.0728 75.8973 56.505 74.3218 56.505H70.9535C69.378 56.505 68.9434 56.0728 68.9434 54.5061V52.8853C68.9434 44.4573 71.5511 40.9996 79.1026 40.9996C86.7628 40.9996 89.5878 44.5113 89.5878 51.5346C89.5878 54.5601 88.5013 57.8556 86.2195 61.3673L78.4507 73.5231Z" fill="#FF6752"/>
<path d="M409.72 124.386V91.1786C409.72 87.4873 406.728 84.4949 403.037 84.4949H389.684C385.992 84.4949 383 87.4873 383 91.1786V163.316C383 167.007 385.992 170 389.684 170H461.821C465.512 170 468.505 167.007 468.505 163.316V149.963C468.505 146.272 465.512 143.279 461.821 143.279H428.614L497.274 74.6197C499.884 72.0095 499.884 67.7776 497.274 65.1675L487.832 55.7259C485.222 53.1157 480.99 53.1157 478.38 55.7259L409.72 124.386Z" fill="#FF6752" fill-opacity="0.75"/>
</svg>
