<svg width="243" height="182" viewBox="0 0 243 182" fill="none" xmlns="http://www.w3.org/2000/svg">
<path d="M39.07 83.91C31.2 83.57 31.4 95.21 38.61 95.55C46.31 95.9 46.91 84.24 39.07 83.91Z" fill="#81A046"/>
<path d="M148.43 69.21C145.68 68.49 144.02 65.68 144.73 62.93L146.17 57.4C146.88 54.64 149.7 52.98 152.46 53.69C159.28 55.46 165.45 49.2 163.6 42.42C162.21 37.3 157.25 34.48 152.17 36.02C148.96 36.99 146.66 39.51 145.88 42.52C144.88 46.36 140.09 47.67 137.27 44.88C135.97 43.59 135.44 41.71 135.9 39.93C139.65 25.41 157.72 20.4 168.42 30.91C179.12 41.42 174.43 59.57 159.98 63.58C158.76 63.92 157.5 64.14 156.24 64.23C155.51 64.29 154.89 64.8 154.71 65.51C154 68.26 151.19 69.92 148.44 69.21H148.43Z" fill="#DA6A9E"/>
<path d="M140.2 76.22C137.5 80.51 140.46 86.12 145.53 86.31C147.89 86.4 150.12 85.22 151.37 83.22C154.07 78.93 151.11 73.32 146.04 73.13C143.68 73.04 141.45 74.22 140.2 76.22Z" fill="#DA6A9E"/>
<path d="M137.05 77.27C136.63 78.37 136.89 80.18 137.07 80.99C137.43 82.55 138.24 84.02 139.4 85.13C141.52 87.17 144.47 87.9 147.3 87.08C150.13 86.26 152.23 84.07 152.93 81.21C153.44 79.15 153.1 77.01 152.07 75.22C151.78 74.71 151.23 74.34 150.64 74.41C150 74.48 149.69 75 149.55 75.54C149.39 76.15 149.46 76.8 149.7 77.38C150.09 78.35 150.19 79.43 149.93 80.48C149.71 81.36 149.28 82.14 148.68 82.76C148.08 83.39 147.32 83.86 146.44 84.11C144.69 84.62 142.86 84.17 141.54 82.9C140.57 81.98 140.03 80.72 139.99 79.42C139.99 79.32 139.99 79.23 140.01 79.13C140.13 78.27 140.16 77.11 139.32 76.63C138.9 76.39 138.15 76.27 137.7 76.49C137.4 76.64 137.19 76.93 137.05 77.28V77.27ZM137.84 77.14C137.98 77.27 138.14 77.43 138.31 77.61L137.84 77.14Z" fill="#033A43"/>
<path d="M138 79.7L137.41 79.4C137.58 79.49 137.78 79.59 138 79.7Z" fill="#033A43"/>
<path d="M119.78 96.8199H119.79L119.83 96.8499L119.95 96.9399L119.78 96.8199Z" fill="#010101"/>
<path d="M132.82 92.11L132.8 92.13L132.77 92.15C132.77 92.15 132.79 92.11 132.82 92.11V92.09H132.84C132.84 92.09 132.86 92.09 132.87 92.08L132.82 92.12V92.11Z" fill="#010101"/>
<path d="M174.49 97.01C174 97.05 173.53 97.01 173.07 96.88C171.33 96.43 169.99 94.93 169.83 93.05C169.81 92.87 169.81 92.7 169.82 92.52C169.82 92.11 169.86 91.71 169.95 91.35C170.19 90.41 170.77 89.64 171.64 89.12C173.05 88.28 175 88.28 176.49 89.12C177.72 89.82 178.42 91.01 178.44 92.38C178.6 94.73 176.85 96.8 174.49 97V97.01Z" fill="#F3B12E"/>
<path d="M183.02 42.86C182.98 43.03 182.93 43.19 182.9 43.36C182.93 43.35 182.95 43.32 182.97 43.3C183.01 43.24 183.04 43.18 183.08 43.11C183.09 43.04 183.08 42.95 183.03 42.86H183.02Z" fill="#F3B12E"/>
<path d="M181.9 54.35C181.89 54.42 181.87 54.48 181.82 54.53C181.85 54.45 181.88 54.37 181.91 54.28C181.91 54.3 181.91 54.32 181.91 54.34L181.9 54.35Z" fill="#F3B12E"/>
<path d="M186.27 59.93C187.74 54.58 189.2 49.23 190.67 43.88C191.3 41.56 191.84 36.14 188.08 36.28C185.6 36.37 183.61 40.36 182.83 42.31C178.91 52.13 176.19 62.31 174.2 72.69C173.74 75.09 171.53 83.51 176.64 82.75C179.55 82.31 181.29 78.13 181.96 75.68C183.4 70.43 184.83 65.19 186.27 59.94V59.93ZM181.81 54.54C181.84 54.46 181.87 54.38 181.9 54.29C181.9 54.31 181.9 54.33 181.9 54.35C181.89 54.42 181.87 54.48 181.82 54.53L181.81 54.54Z" fill="#F3B12E"/>
<path d="M174.4 50.46C173.79 52.83 172.8 55.01 171.5 56.95C170.52 58.42 168.25 57.18 168.92 55.56C169.26 54.72 169.65 54.06 169.65 54.06C170.4 52.71 171 51.25 171.4 49.7C172.07 47.1 172.17 44.24 171.52 41.57C170.87 38.9 168.73 36.36 168.96 33.47C169.07 32.17 170.04 31.61 170.92 32.75C172.49 34.78 173.77 37.43 174.42 39.92C175.32 43.37 175.29 47.02 174.4 50.47V50.46Z" fill="#033A43"/>
<path d="M138 79.7L137.41 79.4C137.58 79.49 137.78 79.59 138 79.7Z" fill="#033A43"/>
<path d="M161.67 52.72C158.95 55.49 155.09 56.55 151.34 55.58C149.41 55.09 147.43 56.25 146.94 58.18L145.5 63.72C145.23 64.75 145.45 65.86 146.07 66.71C146.74 67.63 148.73 68.88 147.51 70.2C147.04 70.7 146.26 70.77 145.67 70.43C143.11 68.96 141.73 65.92 142.51 62.94L143.95 57.4C144.87 53.82 148.54 51.66 152.12 52.58C154.79 53.27 157.53 52.51 159.46 50.55C161.39 48.58 162.11 45.83 161.37 43.18C161 41.85 160.31 40.69 159.37 39.78C158.44 38.86 157.27 38.19 155.93 37.84C153.27 37.15 150.52 37.91 148.59 39.87C147.65 40.82 146.98 42.01 146.65 43.3C146.03 45.65 144.27 47.43 141.94 48.07C139.6 48.72 137.18 48.07 135.46 46.37C133.77 44.7 133.09 42.24 133.68 39.94C135.25 33.87 139.26 29.01 144.73 26.35C145.29 26.08 146 26.21 146.36 26.71C147.32 28.06 144.48 30.02 144.48 30.02C140.65 32.4 137.86 36.16 136.69 40.7C136.37 41.94 136.74 43.26 137.65 44.16C138.58 45.08 139.88 45.42 141.14 45.07C142.39 44.73 143.34 43.76 143.67 42.51C144.14 40.7 145.08 39.03 146.4 37.69C147.75 36.31 149.4 35.35 151.17 34.86C152.95 34.37 154.85 34.34 156.72 34.83C160.47 35.8 163.33 38.61 164.36 42.34C165.4 46.07 164.39 49.95 161.68 52.71L161.67 52.72Z" fill="#033A43"/>
<path d="M187.19 134.09C182.66 132.15 178.13 137.97 173.47 134.74C170.56 132.73 168.74 125.36 164.75 124.02C162.54 123.27 160.36 125.34 160.83 127.63C162.04 133.47 167.67 141.93 172.56 142.26C176.18 142.52 179.42 138.77 183.17 140.45C187.83 142.65 190.16 150.42 193.01 149.51C197.54 148.09 192.23 136.18 187.19 134.11V134.09Z" fill="#F3B12E"/>
<path d="M146.42 137.9C145.83 136.78 145.05 135.79 144.01 135.08C142.68 134.17 141.06 133.88 139.48 133.83C136.3 133.73 133.14 135.61 131.7 138.44C130.84 140.13 130.58 142.05 130.27 143.92C130.23 144.17 130.18 144.44 129.99 144.61C129.69 144.87 129.24 144.76 128.87 144.61C127.36 144.04 125.93 143.28 124.4 142.76C121.51 141.78 118.24 141.72 115.46 142.98C112.68 144.24 110.5 146.93 110.2 149.96C109.84 153.66 112.18 157.1 114.92 159.61C118.6 162.96 123.16 165.26 127.94 166.65C132.72 168.04 137.72 168.54 142.7 168.55C142.93 168.55 143.17 168.55 143.37 168.43C143.63 168.27 143.74 167.96 143.83 167.68C145.08 163.74 146.08 159.72 146.82 155.65C147.57 151.58 148.37 147.29 147.91 143.15C147.72 141.43 147.28 139.53 146.43 137.9H146.42Z" fill="#82D0C8"/>
<path d="M34.92 40.24C31.69 38.81 37.67 31.04 37.46 29.51C37.22 27.73 31.48 25.95 33.37 23.11C34.84 20.89 40.44 22.84 42.69 21.72C44.11 21.01 46.76 13.08 49.87 13.22C52.98 13.36 51.15 21.2 52.06 21.79C53.18 22.5 60.15 20.71 60.44 22.91C60.77 25.66 56.06 27.78 55.31 28.9C54.35 30.33 57.08 38.7 53.91 39.06C51.29 39.32 46.95 33.1 45.22 33.24C44.03 33.32 36.95 41.15 34.91 40.23L34.92 40.24Z" fill="#F3B12E"/>
<path d="M70.7101 61.1L74.0001 63.07C74.6401 63.45 75.4701 63.23 75.8201 62.57L78.2101 58.16C78.5601 57.5 79.4001 57.28 80.0301 57.66L84.1701 60.14C84.8101 60.52 85.6401 60.3 86.0001 59.64L87.2901 57.24C87.6201 56.62 87.4101 55.85 86.8101 55.49L82.4601 52.89C81.8601 52.53 81.6501 51.76 81.9801 51.14L84.4701 46.54C84.8001 45.92 84.5901 45.15 83.9901 44.79L81.7701 43.47C81.1301 43.09 80.3001 43.32 79.9501 43.97L77.5701 48.38C77.2201 49.04 76.3901 49.26 75.7501 48.88L71.6001 46.41C70.9601 46.03 70.1301 46.26 69.7801 46.91L68.4901 49.29C68.1601 49.91 68.3701 50.68 68.9701 51.04L73.3201 53.64C73.9201 54 74.1301 54.77 73.8001 55.39L70.7201 61.1H70.7101Z" fill="#DA6A9E"/>
<path d="M28.73 123.16C33.4 135.57 44.67 147.77 58.13 149.75C77.35 152.58 102.47 133.81 94.61 113.56L94.3 113.47L94.87 112.9L93.03 107.51C92.87 107.03 93.09 106.49 93.56 106.3C100.49 103.42 103.85 95.29 100.55 88.19C97.94 82.58 91.63 79.4599 85.59 80.7799C77.62 82.5199 73.15 90.72 75.7 98.23C76.14 99.51 76.75 100.68 77.49 101.73L77.22 101.97L74.66 108.12C65.88 114.58 50.68 122.23 32.44 119.57C29.15 119.09 27.23 119.19 28.73 123.17V123.16Z" fill="#FCD882"/>
<path d="M27.9301 122.66C32.6601 135.27 44.1301 147.67 57.8001 149.67C77.3401 152.54 102.87 133.48 94.8801 112.89C94.3301 111.49 92.7001 112.14 93.0901 113.58C98.7801 134.54 73.6201 151.3 55.4101 146.37C43.6801 143.19 34.5501 132.65 30.4101 121.49C40.0501 123.34 50.3901 121.99 59.5501 118.61C62.6301 117.48 65.6201 116.08 68.4401 114.39C71.2601 112.7 74.4301 110.65 76.5601 108.12C77.6801 106.79 78.4701 105.09 78.3801 103.35C78.2901 101.56 77.3001 99.9499 76.6701 98.2699C75.1501 94.1799 75.9301 89.3099 78.6501 85.8999C81.3701 82.4899 85.9401 80.6399 90.2601 81.1999C94.5901 81.7599 98.5301 84.7199 100.28 88.7199C101.03 90.4199 101.4 92.32 101.15 94.16C101.07 94.78 100.98 95.5499 101.5 95.8799C101.86 96.1099 102.36 95.9899 102.67 95.7099C102.98 95.4299 103.15 95.0099 103.27 94.6099C104.08 91.9099 103.4 88.9399 102.02 86.4899C99.9901 82.8699 96.4501 80.1399 92.4401 79.0999C88.4301 78.0599 84.0001 78.7199 80.4701 80.8899C76.9001 83.0799 74.3001 86.7899 73.4801 90.8899C73.0301 93.1499 73.1201 95.49 73.6201 97.7299C73.8701 98.83 74.2101 99.9099 74.6401 100.95C75.0401 101.93 75.6201 102.8 75.7601 103.86C76.1501 106.99 73.0701 108.91 70.6901 110.18C66.8301 112.24 63.0001 114.33 58.8901 115.88C50.2301 119.13 40.8701 120.32 31.7001 118.98C28.3501 118.49 26.4001 118.6 27.9201 122.65L27.9301 122.66Z" fill="#033A43" stroke="#033A43" stroke-width="0.81" stroke-linecap="round" stroke-linejoin="round"/>
<path d="M94.21 93.65C92.3 97.54 88.05 95.37 90.03 91.99C91.31 89.14 96.27 89.44 94.21 93.65Z" fill="#033A43"/>
<path d="M56.39 167.72C55.72 166.1 57.18 154.97 57.65 153.45C57.92 152.84 58.64 152.57 59.24 152.85C59.67 153.04 59.95 153.47 59.95 153.94C59.87 155.55 59.08 166.84 58.51 167.9C58.15 168.46 57.41 168.63 56.85 168.27C56.64 168.14 56.48 167.95 56.39 167.73V167.72Z" fill="#DA6A9E"/>
<path d="M65.57 167.31C65.84 165.21 66.97 154.12 67.71 152.64C68.15 151.76 69.4 152.24 69.63 153.01C70.08 154.58 68.62 166.33 68.11 168.36C67.81 169.58 65.26 169.81 65.58 167.31H65.57Z" fill="#DA6A9E"/>
<path d="M96.75 109.12C95.94 107.83 95.37 106.86 95.22 106.59C91.88 100.54 96.29 97.24 101.16 97.52C102.7 97.61 118.34 102.24 117.28 103.77C116.63 104.71 101.15 103 100.55 103.57C99.95 104.14 106.27 119.21 104.65 119.34C103.44 119.44 99.12 112.89 96.76 109.11L96.75 109.12Z" fill="#F3B12E"/>
<g clip-path="url(#clip0_552_3317)">
<path d="M118.728 105.781L118.744 105.784L118.786 105.808L118.925 105.904L118.728 105.781Z" fill="#010101"/>
<path d="M132.88 99.4307L132.86 99.4584L132.831 99.4846C132.831 99.4846 132.855 99.4418 132.88 99.4307L132.885 99.4079L132.901 99.4031C132.909 99.4045 132.919 99.3906 132.928 99.3844L132.88 99.4307Z" fill="#010101"/>
<path d="M119.342 107.127C119.07 107.077 118.819 106.953 118.604 106.764C118.18 106.388 117.998 105.805 118.122 105.254C118.591 103.243 119.235 101.389 119.86 99.5942C120.866 96.699 121.811 93.9654 121.997 90.7709C122.497 82.1431 119.21 74.5744 115.731 66.562L115.065 65.0341C113.321 61.0311 111.309 56.3584 109.642 51.6781C108.296 47.8499 106.683 42.7868 106.094 37.5497C105.791 34.8077 105.806 32.3754 106.13 30.0938C106.484 27.4721 107.316 25.0633 108.587 22.9393C115.497 11.4227 132.884 10.0625 140.041 10.0125C156.731 9.89952 174.52 14.2449 190.14 22.247C194.597 24.531 198.75 27.0659 202.48 29.7748C206.618 32.7782 210.237 36.0558 213.252 39.5138C220.342 47.6446 223.477 56.3009 222.582 65.2494C222.26 68.466 221.416 71.7129 220.072 74.9156C218.506 78.6511 216.283 82.2663 213.471 85.6797C203.843 97.3667 190.188 105.356 176.022 107.596C167.583 108.935 158.632 107.989 150.141 104.873C146.29 103.462 142.441 101.611 138.366 99.2084L137.753 98.8449C134.413 96.8594 132.845 96.0778 130.615 98.4506C130.13 98.9667 129.66 99.4856 129.19 100.005C126.716 102.726 124.161 105.55 120.153 107.047C119.885 107.148 119.608 107.168 119.343 107.119L119.342 107.127ZM158.575 14.7691C152.362 13.6327 146.13 13.0664 140.054 13.102C133.422 13.1458 117.329 14.3499 111.216 24.5356C110.161 26.2907 109.473 28.3015 109.177 30.5175C108.884 32.5456 108.877 34.7202 109.152 37.1898C109.703 42.1216 111.255 46.9614 112.544 50.63C114.175 55.2094 116.159 59.822 117.888 63.7829L118.553 65.3108C122.028 73.3066 125.617 81.5746 125.075 90.9411C124.866 94.5633 123.797 97.6279 122.77 100.598C122.551 101.241 122.323 101.891 122.11 102.543C123.869 101.294 125.334 99.692 126.939 97.9197C127.418 97.3945 127.898 96.8618 128.402 96.3256C132.416 92.0637 136.093 94.2524 139.341 96.1819L139.941 96.535C143.855 98.8376 147.545 100.612 151.22 101.96C159.22 104.9 167.644 105.781 175.568 104.528C189.01 102.399 201.967 94.8085 211.124 83.695C213.743 80.5214 215.803 77.1591 217.256 73.7014C218.484 70.784 219.25 67.837 219.54 64.9285C220.35 56.8681 217.462 48.9953 210.953 41.5362C208.092 38.2559 204.64 35.1344 200.689 32.2672C197.083 29.6439 193.07 27.1975 188.756 24.9867C179.264 20.1243 168.948 16.6507 158.585 14.7553L158.575 14.7691Z" fill="#033A43"/>
</g>
<defs>
<clipPath id="clip0_552_3317">
<rect width="121" height="101" fill="white" transform="translate(111.073 2.93921) rotate(10.3648)"/>
</clipPath>
</defs>
</svg>
