<?xml version="1.0" encoding="UTF-8"?>
<svg id="Layer_2" data-name="Layer 2" xmlns="http://www.w3.org/2000/svg" viewBox="0 0 1774.4 570.13">
  <defs>
    <style>
      .cls-1 {
        fill: #006676;
      }
    </style>
  </defs>
  <g id="Layer_1-2" data-name="Layer 1">
    <g>
      <path class="cls-1" d="M152.58,184.45c0-4.89-1.31-8.64-3.93-11.26-2.62-2.62-6.37-3.93-11.26-3.93v.03h-20.25c-4.89,0-8.64,1.31-11.26,3.93-2.62,2.62-3.93,6.37-3.93,11.26v47.81c-5.23-6.75-11.4-11.93-18.47-15.57-7.08-3.63-14.76-5.44-23.02-5.44-11.47,0-21.8,3.2-30.99,9.61-9.19,6.4-16.39,15.17-21.62,26.31-5.23,11.14-7.85,23.62-7.85,37.45s2.62,26.31,7.85,37.45c5.22,11.12,12.43,19.9,21.62,26.31,9.19,6.41,19.52,9.61,30.99,9.61,8.26,0,15.94-1.81,23.02-5.44,7.09-3.63,13.24-8.82,18.47-15.57v4.3c0,4.89,1.31,8.64,3.93,11.26s6.37,3.92,11.26,3.92h20.25c4.89,0,8.64-1.31,11.26-3.92s3.93-6.37,3.93-11.26v-156.87ZM94.37,304.5c-5.06,5.32-11.47,7.97-19.23,7.97s-14.2-2.65-19.35-7.97c-5.15-5.32-7.71-11.93-7.71-19.87s2.57-14.55,7.71-19.87c5.15-5.32,11.59-7.97,19.35-7.97s14.17,2.65,19.23,7.97c5.06,5.32,7.59,11.93,7.59,19.87s-2.53,14.55-7.59,19.87Z"/>
      <path class="cls-1" d="M213.54,144.45c-7.59,0-14.03,2.65-19.35,7.97-5.32,5.32-7.97,11.35-7.97,19.11s2.65,14.29,7.97,19.61c5.3,5.32,11.93,7.97,19.35,7.97s13.84-2.69,19.23-8.09,8.09-12.07,8.09-19.49-2.7-13.79-8.09-19.11c-5.41-5.32-11.64-7.97-19.23-7.97Z"/>
      <path class="cls-1" d="M231.26,214.8h-35.42c-2.36,0-4.2.69-5.56,2.03-1.36,1.34-2.03,3.2-2.03,5.56v142.95c0,4.73-1.34,8.44-4.05,11.14-2.7,2.69-6.49,4.05-11.38,4.05-2.36,0-4.8-.34-7.33-1.02-1.36-.33-2.29-.5-2.79-.5-3.36,0-5.48,1.95-6.32,5.82l-4.8,21.01c-.17.5-.26,1.26-.26,2.27,0,3.7,1.86,6.06,5.56,7.08,9.28,2.19,17.29,3.29,24.04,3.29,18.22,0,32.42-4.36,42.63-13.03,10.21-8.7,15.31-20.8,15.31-36.31v-146.74c0-2.36-.69-4.2-2.03-5.56-1.34-1.36-3.2-2.03-5.56-2.03Z"/>
      <path class="cls-1" d="M398.49,214.8v.03h-20.25c-4.89,0-8.64,1.31-11.26,3.93s-3.92,6.37-3.92,11.26v2.27c-5.23-6.75-11.4-11.93-18.47-15.57-7.08-3.63-14.76-5.44-23.02-5.44-11.47,0-21.8,3.2-30.99,9.61-9.19,6.4-16.39,15.17-21.62,26.31-5.23,11.14-7.85,23.62-7.85,37.45s2.62,26.31,7.85,37.45c5.22,11.12,12.43,19.9,21.62,26.31,9.19,6.41,19.52,9.61,30.99,9.61,8.26,0,15.94-1.81,23.02-5.44,7.09-3.63,13.24-8.82,18.47-15.57v4.3c0,4.89,1.31,8.64,3.92,11.26s6.37,3.92,11.26,3.92h20.25c4.89,0,8.64-1.31,11.26-3.92s3.92-6.37,3.92-11.26v-111.33c0-4.89-1.31-8.64-3.92-11.26-2.62-2.62-6.37-3.92-11.26-3.92ZM355.48,304.5c-5.06,5.32-11.47,7.97-19.23,7.97s-14.2-2.65-19.35-7.97c-5.15-5.32-7.71-11.93-7.71-19.87s2.57-14.55,7.71-19.87c5.15-5.32,11.59-7.97,19.35-7.97s14.17,2.65,19.23,7.97,7.59,11.93,7.59,19.87-2.53,14.55-7.59,19.87Z"/>
      <path class="cls-1" d="M568.34,227.92c-9.54-10.45-22.83-15.68-39.86-15.68-5.91,0-11.76,1.43-17.58,4.3-5.82,2.86-11.26,6.9-16.32,12.14-.15-4.54-1.55-8.01-4.17-10.36s-6.28-3.55-11-3.55h-20.25c-4.89,0-8.64,1.31-11.26,3.93s-3.93,6.37-3.93,11.26v111.33c0,4.89,1.31,8.64,3.93,11.26s6.37,3.93,11.26,3.93h20.25c4.89,0,8.64-1.31,11.26-3.93s3.93-6.37,3.93-11.26v-61.98c0-6.23,1.77-11.38,5.32-15.43,3.55-4.05,8.01-6.08,13.41-6.08,5.91,0,10.48,1.77,13.79,5.32,3.31,3.55,4.94,8.52,4.94,14.93v63.26c0,4.89,1.31,8.64,3.93,11.26s6.37,3.93,11.26,3.93h20.25c4.89,0,8.64-1.31,11.26-3.93s3.93-6.37,3.93-11.26v-69.57c0-18.71-4.77-33.3-14.29-43.77l-.05-.03Z"/>
      <path class="cls-1" d="M738.55,214.8l.03.05h-17.72c-4.89,0-8.64,1.31-11.26,3.92-2.62,2.62-3.93,6.37-3.93,11.26v1.77c-5.22-6.58-11.35-11.64-18.34-15.18s-14.55-5.32-22.64-5.32c-11.47,0-21.8,3.2-30.99,9.61-9.19,6.41-16.39,15.17-21.62,26.31-5.23,11.14-7.85,23.62-7.85,37.45s2.62,26.31,7.85,37.45c5.22,11.12,12.43,19.9,21.62,26.31,9.19,6.41,19.52,9.61,30.99,9.61,8.09,0,15.63-1.77,22.64-5.32,6.99-3.55,13.1-8.61,18.34-15.18v6.32c0,20.4-9.37,30.61-28.08,30.61-7.25,0-14.67-2.03-22.26-6.08-3.03-1.36-5.47-2.03-7.33-2.03-3.38,0-6.25,1.53-8.61,4.56l-14.43,17.46c-2.19,2.38-3.29,4.98-3.29,7.85,0,3.2,1.6,5.91,4.8,8.09,7.75,5.06,16.27,8.69,25.55,10.88,9.28,2.19,19.47,3.29,30.61,3.29,23.95,0,41.79-5.99,53.51-17.96,11.71-11.98,17.58-30.03,17.58-54.15v-116.39c0-4.89-1.31-8.64-3.93-11.26-2.62-2.62-6.37-3.92-11.26-3.92ZM705.66,290.47c-1.19,6.41-4.18,11.67-8.99,15.81v.03c-4.82,4.13-10.59,6.2-17.34,6.2-7.77,0-14.2-2.65-19.35-7.97-5.15-5.32-7.71-11.93-7.71-19.87s2.57-14.55,7.71-19.87c5.13-5.32,11.59-7.97,19.35-7.97,6.75,0,12.53,2.07,17.34,6.2,4.82,4.13,7.8,9.4,8.99,15.81v11.64Z"/>
      <path class="cls-1" d="M886.31,221.89c-11.3-6.4-23.95-9.61-37.95-9.61s-26.65,3.2-37.95,9.61c-11.3,6.41-20.2,15.17-26.69,26.31-6.49,11.14-9.74,23.62-9.74,37.45s3.25,26.33,9.74,37.45c6.49,11.12,15.38,19.9,26.69,26.31,11.29,6.41,23.95,9.61,37.95,9.61s26.65-3.2,37.95-9.61c11.29-6.4,20.2-15.17,26.69-26.31,6.49-11.14,9.74-23.62,9.74-37.45s-3.25-26.31-9.74-37.45c-6.49-11.12-15.39-19.9-26.69-26.31ZM865.3,303.75c-4.56,4.8-10.21,7.21-16.96,7.21s-12.41-2.41-16.96-7.21c-4.56-4.8-6.84-10.85-6.84-18.1s2.29-13.29,6.84-18.1c4.56-4.8,10.21-7.21,16.96-7.21s12.41,2.41,16.96,7.21c4.56,4.8,6.83,10.83,6.83,18.1s-2.29,13.29-6.83,18.1Z"/>
      <path class="cls-1" d="M996.12,267.57c5.04-4.8,11.29-7.21,18.71-7.21,5.74,0,11.06,1.53,15.95,4.56,1.68,1.19,3.46,1.77,5.32,1.77,1.68,0,3.46-.67,5.32-2.03l21.5-15.94c2.19-1.69,3.29-3.53,3.29-5.56,0-1.52-.69-3.2-2.03-5.06-6.43-8.09-14.52-14.41-24.3-18.97-9.78-4.56-19.81-6.84-30.11-6.84h-.26c-13.5,0-25.69,3.2-36.57,9.61-10.88,6.41-19.46,15.17-25.69,26.31-6.25,11.14-9.37,23.62-9.37,37.45s3.12,26.31,9.37,37.45c6.25,11.12,14.81,19.9,25.69,26.31,10.88,6.41,23.07,9.61,36.57,9.61h.26c10.3,0,20.33-2.29,30.11-6.83,9.78-4.55,17.89-10.88,24.3-18.97,1.36-1.86,2.03-3.55,2.03-5.06,0-2.02-1.1-3.87-3.29-5.56v.04l-21.5-15.94c-1.86-1.36-3.64-2.03-5.32-2.03-1.86,0-3.64.6-5.32,1.77-4.74,3.05-10.04,4.56-15.95,4.56-7.42,0-13.65-2.41-18.71-7.21-5.06-4.8-7.6-10.85-7.6-18.09s2.54-13.29,7.6-18.1Z"/>
      <path class="cls-1" d="M1207.75,323.1c6.49-11.14,9.75-23.62,9.75-37.45s-3.26-26.31-9.75-37.45c-6.49-11.12-15.39-19.9-26.69-26.31-11.29-6.4-23.94-9.61-37.94-9.61s-26.65,3.2-37.95,9.61c-11.29,6.41-20.19,15.17-26.69,26.31-6.49,11.14-9.74,23.62-9.74,37.45s3.25,26.33,9.74,37.45c6.5,11.12,15.38,19.9,26.69,26.31,11.3,6.41,23.95,9.61,37.95,9.61s26.65-3.2,37.94-9.61c11.3-6.4,20.2-15.17,26.69-26.31ZM1160.08,303.75c-4.57,4.8-10.21,7.21-16.96,7.21s-12.42-2.41-16.96-7.21c-4.56-4.8-6.84-10.85-6.84-18.1s2.29-13.29,6.84-18.1c4.56-4.8,10.21-7.21,16.96-7.21s12.41,2.41,16.96,7.21c4.56,4.8,6.83,10.83,6.83,18.1s-2.29,13.29-6.83,18.1Z"/>
      <path class="cls-1" d="M1318.3,263.11c3.31,3.55,4.94,8.52,4.94,14.93v63.26c0,4.89,1.31,8.64,3.93,11.26s6.37,3.93,11.26,3.93h20.25c4.89,0,8.64-1.31,11.26-3.93,2.61-2.62,3.92-6.37,3.92-11.26v-69.57c0-18.71-4.77-33.3-14.29-43.77l-.05-.03c-9.54-10.45-22.83-15.68-39.86-15.68-5.9,0-11.76,1.43-17.58,4.3-5.82,2.86-11.26,6.9-16.32,12.14-.15-4.54-1.55-8.01-4.17-10.36-2.61-2.36-6.28-3.55-11-3.55h-20.24c-4.89,0-8.65,1.31-11.26,3.93-2.62,2.62-3.93,6.37-3.93,11.26v111.33c0,4.89,1.31,8.64,3.93,11.26,2.61,2.62,6.37,3.93,11.26,3.93h20.24c4.89,0,8.65-1.31,11.26-3.93,2.62-2.62,3.93-6.37,3.93-11.26v-61.98c0-6.23,1.77-11.38,5.32-15.43,3.55-4.05,8-6.08,13.41-6.08,5.91,0,10.5,1.77,13.79,5.32Z"/>
      <path class="cls-1" d="M1410.55,350.15c5.91,5.91,13.24,8.85,21.51,8.85s15.39-2.94,21.38-8.85c5.99-5.9,8.99-13.52,8.99-21.76s-3-15.34-8.99-21.25c-5.99-5.91-12.95-8.85-21.38-8.85s-15.6,2.91-21.51,8.73c-5.9,5.82-8.85,12.77-8.85,21.38s2.95,15.86,8.85,21.76v-.02Z"/>
      <path class="cls-1" d="M1628.92,341.31v-111.33c0-4.89-1.31-8.64-3.93-11.26-2.62-2.62-6.37-3.92-11.26-3.92l.05.03h-20.24c-4.89,0-8.65,1.31-11.26,3.93-2.62,2.62-3.93,6.37-3.93,11.26v61.98c0,6.23-1.77,11.38-5.32,15.43-3.55,4.05-8.02,6.08-13.41,6.08-5.91,0-10.5-1.77-13.79-5.32-3.31-3.55-4.94-8.52-4.94-14.93v-63.26c0-4.89-1.31-8.64-3.93-11.26s-6.37-3.93-11.26-3.93h-20.25c-4.89,0-8.64,1.31-11.26,3.93-2.61,2.62-3.92,6.37-3.92,11.26v69.57c0,18.71,4.75,33.32,14.29,43.77,9.54,10.45,22.81,15.68,39.86,15.68,5.88,0,11.75-1.45,17.57-4.3,5.82-2.86,11.26-6.9,16.33-12.14.15,4.54,1.55,8.01,4.16,10.36,2.62,2.38,6.29,3.55,11,3.55h20.25c4.89,0,8.64-1.31,11.26-3.92s3.93-6.37,3.93-11.26Z"/>
      <path class="cls-1" d="M1656.74,340.81c7.59,5.73,16.2,10.21,25.81,13.41,9.62,3.2,19.14,4.8,28.6,4.8,11.96,0,22.77-2.07,32.38-6.2,9.61-4.13,17.15-9.78,22.64-16.96,5.49-7.16,8.23-15.22,8.23-24.16,0-10.62-2.79-19.15-8.35-25.55-5.58-6.4-11.98-11.04-19.23-13.91-7.27-2.88-15.94-5.49-26.07-7.85-5.57-1.19-9.53-2.24-11.89-3.17l.07.03c-2.36-.91-3.55-2.05-3.55-3.41s1.1-2.53,3.29-3.55c2.18-1.02,4.89-1.52,8.09-1.52,5.06,0,10.28,1.26,15.68,3.79,3.38,1.69,6.25,2.53,8.61,2.53,3.2,0,6.24-1.43,9.11-4.3l12.9-12.65c3.03-2.86,4.54-5.91,4.54-9.11s-1.77-6.08-5.32-8.61c-6.92-4.72-14.63-8.35-23.16-10.88-8.52-2.53-16.83-3.79-24.93-3.79-10.96,0-20.88,1.98-29.73,5.94-8.85,3.96-15.81,9.4-20.87,16.32-5.06,6.92-7.59,14.67-7.59,23.28,0,11.64,2.94,20.78,8.85,27.44,5.9,6.66,12.57,11.38,19.99,14.17,7.42,2.79,16.18,5.18,26.31,7.21,5.04,1.02,8.62,1.83,10.74,2.41,2.12.59,3.17,1.48,3.17,2.65,0,1.69-1.31,3.03-3.93,4.05-2.61,1.02-5.94,1.52-9.98,1.52-8.61,0-16.88-2.1-24.8-6.32-3.22-1.86-6.07-2.79-8.6-2.79-3.38,0-6.41,1.45-9.11,4.3l-12.66,12.9c-2.87,2.88-4.3,5.91-4.3,9.11,0,3.53,1.69,6.49,5.06,8.85Z"/>
      <path class="cls-1" d="M834.4,451.64c6.28-3.89,13.53-5.84,21.76-5.84,5.47,0,10.78.84,15.91,2.5,5.13,1.67,9.64,4.01,13.53,7.04,1.58,1.17,2.96,1.74,4.12,1.74,1.31,0,2.67-.59,4.11-1.74l16.67-14.07c1.58-1.58,2.38-3.1,2.38-4.55,0-1.31-.5-2.53-1.52-3.68-6.49-7.94-14.57-14.07-24.24-18.4-9.68-4.32-19.99-6.49-30.96-6.49-15.44,0-29.3,3.51-41.56,10.5-12.26,7.01-21.87,16.65-28.79,28.91-6.94,12.26-10.4,25.98-10.4,41.13s3.48,28.87,10.4,41.13c6.92,12.28,16.51,21.92,28.79,28.91,12.26,7.01,26.12,10.5,41.56,10.5,10.97,0,21.28-2.17,30.96-6.49,9.66-4.32,17.75-10.38,24.24-18.18,1.02-1.15,1.52-2.44,1.52-3.89,0-1.58-.79-3.03-2.38-4.32v-.05l-16.67-14.07c-1.45-1.15-2.82-1.74-4.11-1.74-1.15,0-2.53.58-4.12,1.74-3.91,3.03-8.38,5.34-13.43,6.92-5.04,1.58-10.38,2.38-16.01,2.38-8.23,0-15.48-1.95-21.76-5.84-6.27-3.91-11.1-9.12-14.5-15.7-3.41-6.56-5.1-13.65-5.1-21.31s1.7-14.76,5.1-21.33c3.37-6.58,8.21-11.81,14.5-15.7Z"/>
      <path class="cls-1" d="M1052.3,410.13v.02h-16.67c-3.6,0-6.42.98-8.44,2.93-2.01,1.96-3.03,4.8-3.03,8.56v49.14h-51.96v-49.14c0-3.75-.98-6.61-2.93-8.56-1.95-1.95-4.74-2.93-8.33-2.93h-16.67c-3.6,0-6.42.98-8.44,2.93-2.01,1.96-3.03,4.8-3.03,8.56v134.23c0,3.6,1.02,6.42,3.03,8.44s4.82,3.03,8.44,3.03h16.67c3.6,0,6.39-.98,8.33-2.93,1.95-1.96,2.93-4.8,2.93-8.56v-51.08h51.96v51.08c0,3.6,1.02,6.42,3.03,8.44,2.02,2.02,4.82,3.03,8.44,3.03h16.67c3.75,0,6.61-1,8.55-3.03,1.95-2.01,2.93-4.82,2.93-8.44v-134.23c0-3.75-.98-6.61-2.93-8.56-1.94-1.95-4.8-2.93-8.55-2.93Z"/>
      <path class="cls-1" d="M1116.59,410.13h-16.67c-3.6,0-6.42.98-8.44,2.93-2.01,1.96-3.03,4.8-3.03,8.56v134.23c0,3.6,1.02,6.42,3.03,8.44,2.02,2.02,4.82,3.03,8.44,3.03v.02h16.67c3.59,0,6.38-.98,8.33-2.93,1.94-1.96,2.93-4.8,2.93-8.56v-134.23c0-3.75-.99-6.61-2.93-8.56-1.95-1.95-4.74-2.93-8.33-2.93Z"/>
      <path class="cls-1" d="M1207.41,451.64c6.28-3.89,13.53-5.84,21.76-5.84,5.47,0,10.78.84,15.91,2.5,5.13,1.67,9.64,4.01,13.53,7.04,1.58,1.17,2.96,1.74,4.11,1.74,1.31,0,2.67-.59,4.12-1.74l16.67-14.07c1.58-1.58,2.37-3.1,2.37-4.55,0-1.31-.5-2.53-1.51-3.68-6.49-7.94-14.57-14.07-24.25-18.4-9.67-4.32-19.98-6.49-30.95-6.49-15.45,0-29.31,3.51-41.56,10.5-12.26,7.01-21.87,16.65-28.79,28.91-6.94,12.26-10.4,25.98-10.4,41.13s3.48,28.87,10.4,41.13c6.92,12.28,16.51,21.92,28.79,28.91,12.25,7.01,26.11,10.5,41.56,10.5,10.97,0,21.28-2.17,30.95-6.49,9.66-4.32,17.76-10.38,24.25-18.18,1.01-1.15,1.51-2.44,1.51-3.89,0-1.58-.79-3.03-2.37-4.32v-.05l-16.67-14.07c-1.45-1.15-2.82-1.74-4.12-1.74-1.15,0-2.53.58-4.11,1.74-3.91,3.03-8.38,5.34-13.43,6.92-5.04,1.58-10.38,2.38-16.01,2.38-8.23,0-15.48-1.95-21.76-5.84-6.27-3.91-11.11-9.12-14.5-15.7-3.41-6.56-5.1-13.65-5.1-21.31s1.71-14.76,5.1-21.33c3.37-6.58,8.21-11.81,14.5-15.7Z"/>
      <path class="cls-1" d="M1389.13,419.24c-2.17-6.06-6.57-9.09-13.2-9.09h-16.46c-6.49,0-10.81,3.03-12.98,9.09l-50.23,135.09c-.56,1.6-.86,3.18-.86,4.77,0,2.46.86,4.44,2.6,5.96,1.72,1.52,4.19,2.27,7.35,2.27h16.02c6.49,0,10.9-3.03,13.2-9.09l6.29-16.67h53.9l6.29,16.67c2.44,6.06,6.85,9.09,13.2,9.09h15.81c3.17,0,5.61-.72,7.35-2.17,1.74-1.45,2.6-3.46,2.6-6.06,0-1.6-.29-3.19-.86-4.77l-50.02-135.09ZM1351.26,513.4l16.66-44.82h.02l16.44,44.82h-33.12Z"/>
      <path class="cls-1" d="M1600.73,475.31c-2.01-1.45-4.84-2.17-8.43-2.17h-59.11c-3.75,0-6.61.98-8.56,2.93-1.94,1.95-2.92,4.73-2.92,8.33v9.31c0,3.6.99,6.42,3.03,8.44,2.01,2.01,4.82,3.03,8.43,3.03h32.9c-1.44,8.08-5.45,14.69-12.01,19.8-6.58,5.11-14.76,7.68-23.71,7.68s-16.99-1.95-24.14-5.84c-7.14-3.91-12.74-9.28-16.79-16.13-4.04-6.85-6.06-14.69-6.06-23.05s1.88-15.94,5.63-22.73c3.76-6.77,8.92-12.12,15.48-16.01,6.56-3.89,13.96-5.84,22.19-5.84,5.48,0,10.78.84,15.91,2.5,5.12,1.67,9.56,4.01,13.31,7.04,1.59,1.17,3.03,1.74,4.32,1.74,1.16,0,2.45-.58,3.89-1.74l16.67-14.07c1.58-1.45,2.38-2.96,2.38-4.54,0-1.31-.5-2.53-1.52-3.68-6.49-7.78-14.56-13.88-24.24-18.28-9.68-4.41-19.92-6.61-30.75-6.61-15.58,0-29.67,3.56-42.22,10.71-12.57,7.15-22.45,16.99-29.66,29.54-7.23,12.55-10.83,26.39-10.83,41.99s3.68,29.66,11.03,42.22c7.36,12.55,17.46,22.4,30.31,29.54,12.84,7.15,27.29,10.71,43.3,10.71,14.15,0,26.96-3.48,38.43-10.4,11.46-6.94,20.52-16.46,27.17-28.58,6.62-12.12,9.95-25.69,9.95-40.7l.1.02v-.43c0-3.75-.09-6.56-.22-8.44-.16-2.74-1.24-4.84-3.26-6.28Z"/>
      <path class="cls-1" d="M1733.89,418.48c-12.05-7.01-25.65-10.5-40.8-10.5s-28.72,3.51-40.71,10.5c-11.98,6.99-21.31,16.6-28.03,28.79-6.71,12.21-10.07,25.88-10.07,41.03s3.36,28.87,10.07,41.13c6.72,12.26,16.05,21.86,28.03,28.79,11.99,6.94,25.55,10.4,40.71,10.4s28.75-3.48,40.8-10.4c12.05-6.92,21.44-16.51,28.15-28.79,6.71-12.26,10.07-25.98,10.07-41.13s-3.36-28.82-10.07-41.03c-6.71-12.19-16.1-21.78-28.15-28.79ZM1725.99,510.27c-3.17,6.42-7.61,11.47-13.31,15.15-5.7,3.68-12.23,5.53-19.59,5.53s-13.86-1.84-19.49-5.53c-5.63-3.68-10.04-8.73-13.21-15.15-3.19-6.42-4.77-13.89-4.77-21.97s1.58-15.38,4.77-21.87c3.17-6.49,7.58-11.57,13.21-15.25,5.63-3.68,12.12-5.53,19.49-5.53s13.89,1.84,19.59,5.53c5.7,3.67,10.14,8.76,13.31,15.25,3.18,6.49,4.77,13.64,4.77,21.87s-1.6,15.55-4.77,21.97Z"/>
      <path class="cls-1" d="M286.19,53.58l13.04,3.11c.88.22,1.89.33,3.08.33,2.93,0,7.05-1.21,10.05-6.95,2-3.77,4.68-6.57,8.18-8.55,3.52-1.99,7.04-3.01,10.47-3.01h.62c4.89,0,8.79,1.49,11.9,4.55,3.1,3.05,4.6,6.75,4.6,11.34,0,5.29-3.21,12.15-9.55,20.39-6.78,8.81-14.27,17.19-22.26,24.92-8.14,7.86-18.32,17.27-30.27,27.99-2.2,2-3.53,4.24-3.96,6.58-.33,1.66-.5,3.01-.5,4.13v8.52c0,3.99,1.15,7.21,3.42,9.57,2.31,2.42,5.62,3.65,9.81,3.65h86.5c4.16,0,7.47-1.21,9.85-3.59,2.38-2.38,3.58-5.62,3.58-9.64v-8.52c0-4.01-1.2-7.26-3.59-9.64-2.38-2.38-5.69-3.58-9.85-3.58h-38.63c10.84-11.14,20.57-22.41,28.99-33.6,10.62-14.11,16-27.45,16-39.67,0-9.57-2.36-18.39-7.02-26.21-4.66-7.81-11.15-14.04-19.31-18.53-8.13-4.47-17.36-6.74-27.44-6.74h-3.12c-11.96,0-22.94,3.78-32.63,11.24-9.64,7.42-16.41,17.04-20.11,28.6l-.04.12-.03.13c-.38,1.5-.54,2.48-.54,3.28,0,2.26.84,7.74,8.75,9.79Z"/>
      <path class="cls-1" d="M494.82,152.02c10.04-7.11,18.02-17,23.7-29.38,5.63-12.26,8.48-26.13,8.48-41.21s-2.85-28.94-8.48-41.21c-5.68-12.38-13.66-22.27-23.7-29.39-10.16-7.19-21.62-10.83-34.06-10.83s-23.88,3.65-33.97,10.84c-9.97,7.11-17.9,16.99-23.59,29.38-5.63,12.27-8.48,26.13-8.48,41.21s2.85,28.94,8.48,41.21c5.68,12.39,13.62,22.27,23.58,29.38,10.08,7.19,21.51,10.84,33.97,10.84s23.91-3.65,34.06-10.83ZM438.07,104.87c-2.53-6.93-3.81-14.82-3.81-23.45s1.28-16.52,3.81-23.45c2.47-6.77,5.82-12.14,9.96-15.97,3.9-3.61,8.06-5.36,12.72-5.36s8.87,1.76,12.85,5.38c4.2,3.83,7.58,9.2,10.04,15.95,2.53,6.93,3.81,14.82,3.81,23.45s-1.28,16.52-3.81,23.45c-2.46,6.76-5.84,12.12-10.04,15.95-3.97,3.62-8.17,5.38-12.85,5.38s-8.83-1.75-12.72-5.36c-4.14-3.83-7.49-9.2-9.96-15.97Z"/>
      <path class="cls-1" d="M538.2,53.58l13.04,3.11c.88.22,1.89.33,3.08.33,2.93,0,7.05-1.21,10.05-6.95,2-3.77,4.68-6.57,8.18-8.55,3.52-1.99,7.04-3.01,10.47-3.01h.62c4.89,0,8.79,1.49,11.9,4.55,3.1,3.05,4.6,6.75,4.6,11.34,0,5.29-3.21,12.15-9.55,20.39-6.78,8.81-14.27,17.19-22.27,24.92-8.14,7.86-18.31,17.27-30.27,27.98-2.2,2-3.53,4.24-3.96,6.58-.33,1.66-.5,3.01-.5,4.13v8.52c0,3.99,1.15,7.21,3.42,9.57,2.31,2.42,5.62,3.65,9.81,3.65h86.5c4.16,0,7.47-1.21,9.85-3.58,2.38-2.38,3.59-5.62,3.59-9.64v-8.52c0-4.01-1.21-7.26-3.59-9.64-2.38-2.38-5.69-3.58-9.84-3.58h-38.63c10.84-11.14,20.57-22.41,28.99-33.6,10.62-14.11,16-27.45,16-39.67,0-9.57-2.36-18.39-7.02-26.21-4.66-7.81-11.15-14.04-19.31-18.53-8.13-4.47-17.36-6.74-27.44-6.74h-3.12c-11.96,0-22.94,3.78-32.64,11.24-9.64,7.42-16.41,17.04-20.11,28.6l-.04.12-.03.13c-.38,1.5-.54,2.48-.54,3.28,0,2.26.84,7.74,8.75,9.79Z"/>
      <path class="cls-1" d="M738.01,55.81c-7.03-3.87-14.77-6.22-23.1-7.04l19.06-34.57c.91-1.59,1.37-3.18,1.37-4.72,0-2.18-.94-4.15-2.64-5.55-1.51-1.23-3.46-1.85-5.8-1.85h-23.7c-4.13,0-7.48,2.03-9.39,5.64l-35.85,65.08c-6.48,9.08-9.77,19.6-9.77,31.29,0,10.94,2.64,21.01,7.83,29.92,5.2,8.92,12.39,16,21.38,21.04,8.97,5.04,19.12,7.59,30.17,7.59s21.2-2.55,30.17-7.59c8.98-5.05,16.18-12.13,21.38-21.05,5.2-8.91,7.83-18.98,7.83-29.92,0-10.28-2.61-19.77-7.77-28.22-5.14-8.41-12.26-15.16-21.16-20.06ZM722.58,120.52c-4.16,4.39-9.07,6.52-15.03,6.52s-10.87-2.13-15.03-6.52c-4.22-4.45-6.26-9.83-6.26-16.43s2.06-12.24,6.28-16.76c4.15-4.45,9.06-6.61,15.01-6.61s10.85,2.16,15.01,6.61c4.23,4.53,6.29,10.01,6.29,16.76s-2.05,11.98-6.26,16.43Z"/>
    </g>
  </g>
</svg>